<svg width="615" height="614" viewBox="0 0 615 614" fill="none" xmlns="http://www.w3.org/2000/svg">
<circle cx="334.604" cy="331" r="280" fill="#FEBE48"/>
<path d="M518.424 168.642C524.683 168.839 530.302 171.591 534.319 175.868L534.319 175.869C538.324 180.152 540.705 185.953 540.505 192.226L529.286 539.626C529.08 545.886 526.326 551.513 522.05 555.537C517.901 559.432 512.341 561.793 506.303 561.758L505.717 561.747L236.379 553.155L236.378 553.155C230.119 552.959 224.501 550.197 220.492 545.92L220.119 545.513C216.324 541.27 214.096 535.645 214.295 529.581L214.295 529.58L225.518 182.162C225.724 175.9 228.474 170.264 232.756 166.244L232.755 166.243C237.036 162.231 242.823 159.845 249.085 160.041L518.423 168.642L518.424 168.642Z" fill="#67C7F4" stroke="black" stroke-width="4"/>
<mask id="path-3-inside-1_1_742" fill="white">
<path fill-rule="evenodd" clip-rule="evenodd" d="M313.09 295.053L339.095 295.883C342.081 295.978 344.449 298.502 344.352 301.491L343.536 326.876C343.446 329.874 340.917 332.237 337.924 332.14L311.919 331.31C308.933 331.215 306.573 328.692 306.669 325.704L307.485 300.319C307.582 297.33 310.104 294.958 313.09 295.053ZM366.456 296.757L392.461 297.587C395.446 297.682 397.813 300.214 397.716 303.203L396.9 328.588C396.804 331.577 394.281 333.948 391.296 333.853L365.29 333.024C362.297 332.927 359.929 330.403 360.025 327.414L360.841 302.029C360.938 299.04 363.46 296.668 366.454 296.765L366.456 296.757ZM419.821 298.461L445.826 299.29C448.82 299.387 451.178 301.918 451.082 304.907L450.266 330.291C450.169 333.28 447.648 335.644 444.653 335.555L418.648 334.726C415.662 334.63 413.293 332.114 413.391 329.117L414.207 303.733C414.303 300.744 416.834 298.373 419.819 298.469L419.821 298.461ZM473.188 300.156L499.193 300.986C502.179 301.081 504.539 303.604 504.442 306.593L503.626 331.977C503.538 334.968 501.007 337.338 498.022 337.243L472.017 336.413C469.031 336.318 466.663 333.794 466.759 330.805L467.575 305.42C467.672 302.431 470.195 300.059 473.188 300.156ZM258.105 343.854L284.11 344.683C287.096 344.779 289.464 347.303 289.376 350.293L288.552 375.676C288.461 378.675 285.933 381.037 282.939 380.94L256.934 380.111C253.948 380.015 251.58 377.491 251.678 374.494L252.494 349.11C252.591 346.121 255.113 343.749 258.107 343.846L258.105 343.854ZM256.468 394.363L282.465 395.191C285.451 395.286 287.826 397.82 287.729 400.809L286.915 426.185C286.818 429.174 284.286 431.552 281.3 431.457L255.303 430.629C252.318 430.534 249.942 428.008 250.04 425.011L250.854 399.635C250.951 396.646 253.475 394.266 256.468 394.363ZM254.839 444.873L280.845 445.703C283.83 445.798 286.198 448.322 286.102 451.311L285.287 476.688C285.189 479.685 282.667 482.057 279.673 481.96L253.668 481.13C250.682 481.035 248.306 478.509 248.404 475.512L249.219 450.135C249.315 447.147 251.846 444.776 254.831 444.872L254.839 444.873ZM253.204 495.374L279.209 496.204C282.196 496.291 284.563 498.823 284.474 501.814L283.658 527.199C283.562 530.187 281.031 532.558 278.046 532.462L252.041 531.633C249.053 531.546 246.687 529.013 246.783 526.024L247.599 500.64C247.696 497.651 250.219 495.279 253.212 495.376L253.204 495.374ZM311.461 345.564L337.466 346.393C340.452 346.489 342.828 349.015 342.73 352.011L341.914 377.396C341.817 380.385 339.287 382.755 336.301 382.66L310.296 381.83C307.309 381.743 304.942 379.211 305.039 376.222L305.855 350.837C305.951 347.849 308.474 345.477 311.459 345.572L311.461 345.564ZM309.834 396.066L335.839 396.896C338.833 396.993 341.201 399.517 341.103 402.514L340.288 427.891C340.19 430.888 337.667 433.259 334.674 433.163L308.669 432.333C305.683 432.238 303.317 429.706 303.413 426.717L304.228 401.34C304.324 398.351 306.847 395.979 309.832 396.074L309.834 396.066ZM308.197 446.575L334.202 447.405C337.189 447.492 339.556 450.024 339.467 453.015L338.645 478.39C338.556 481.38 336.024 483.759 333.03 483.662L307.025 482.832C304.04 482.737 301.681 480.206 301.77 477.216L302.592 451.841C302.689 448.852 305.211 446.48 308.197 446.575ZM306.568 497.086L332.573 497.916C335.559 498.011 337.935 500.537 337.837 503.533L337.021 528.918C336.924 531.907 334.393 534.277 331.408 534.182L305.403 533.352C302.417 533.257 300.049 530.733 300.146 527.744L300.962 502.359C301.058 499.371 303.581 496.999 306.566 497.094L306.568 497.086ZM364.827 347.268L390.832 348.097C393.825 348.194 396.185 350.717 396.087 353.713L395.271 379.098C395.175 382.087 392.66 384.461 389.667 384.364L363.661 383.534C360.676 383.439 358.3 380.913 358.396 377.924L359.212 352.539C359.31 349.543 361.839 347.18 364.825 347.276L364.827 347.268ZM363.191 397.768L389.196 398.598C392.184 398.685 394.55 401.217 394.452 404.214L393.63 429.589C393.541 432.58 391.017 434.96 388.023 434.863L362.018 434.033C359.033 433.938 356.666 431.406 356.763 428.417L357.577 403.04C357.673 400.051 360.198 397.672 363.191 397.768ZM361.562 448.279L387.567 449.109C390.553 449.204 392.921 451.728 392.823 454.725L392.009 480.102C391.912 483.091 389.39 485.462 386.404 485.367L360.399 484.538C357.413 484.442 355.037 481.917 355.135 478.92L355.95 453.543C356.046 450.554 358.577 448.184 361.562 448.279ZM359.935 498.782L385.94 499.611C388.935 499.7 391.294 502.231 391.197 505.219L390.381 530.604C390.285 533.593 387.77 535.967 384.777 535.87L358.772 535.04C355.786 534.945 353.41 532.419 353.506 529.43L354.322 504.045C354.419 501.057 356.95 498.686 359.935 498.782ZM418.186 348.962L444.191 349.791C447.176 349.886 449.545 352.411 449.448 355.399L448.624 380.783C448.535 383.773 446.005 386.143 443.019 386.048L417.014 385.218C414.029 385.123 411.661 382.599 411.759 379.602L412.575 354.217C412.671 351.229 415.194 348.857 418.179 348.952L418.186 348.962ZM471.558 350.675L497.563 351.505C500.548 351.6 502.916 354.124 502.818 357.121L502.002 382.506C501.906 385.495 499.383 387.866 496.398 387.771L470.392 386.942C467.399 386.845 465.031 384.321 465.127 381.332L465.943 355.947C466.04 352.958 468.562 350.586 471.556 350.683L471.558 350.675ZM429.931 400.458L483.488 402.168C493.31 402.481 501.076 410.784 500.76 420.609L497.495 521.586C497.179 531.411 488.887 539.198 479.065 538.886L425.509 537.176C415.695 536.865 407.911 528.566 408.237 518.735L411.502 417.757C411.819 407.925 420.11 400.145 429.931 400.458ZM259.733 293.351L285.73 294.179C288.723 294.276 291.09 296.808 290.993 299.797L290.177 325.182C290.081 328.171 287.558 330.543 284.565 330.446L258.567 329.618C255.582 329.523 253.204 327.005 253.302 324.008L254.118 298.623C254.215 295.634 256.745 293.264 259.731 293.359"/>
</mask>
<path fill-rule="evenodd" clip-rule="evenodd" d="M313.09 295.053L339.095 295.883C342.081 295.978 344.449 298.502 344.352 301.491L343.536 326.876C343.446 329.874 340.917 332.237 337.924 332.14L311.919 331.31C308.933 331.215 306.573 328.692 306.669 325.704L307.485 300.319C307.582 297.33 310.104 294.958 313.09 295.053ZM366.456 296.757L392.461 297.587C395.446 297.682 397.813 300.214 397.716 303.203L396.9 328.588C396.804 331.577 394.281 333.948 391.296 333.853L365.29 333.024C362.297 332.927 359.929 330.403 360.025 327.414L360.841 302.029C360.938 299.04 363.46 296.668 366.454 296.765L366.456 296.757ZM419.821 298.461L445.826 299.29C448.82 299.387 451.178 301.918 451.082 304.907L450.266 330.291C450.169 333.28 447.648 335.644 444.653 335.555L418.648 334.726C415.662 334.63 413.293 332.114 413.391 329.117L414.207 303.733C414.303 300.744 416.834 298.373 419.819 298.469L419.821 298.461ZM473.188 300.156L499.193 300.986C502.179 301.081 504.539 303.604 504.442 306.593L503.626 331.977C503.538 334.968 501.007 337.338 498.022 337.243L472.017 336.413C469.031 336.318 466.663 333.794 466.759 330.805L467.575 305.42C467.672 302.431 470.195 300.059 473.188 300.156ZM258.105 343.854L284.11 344.683C287.096 344.779 289.464 347.303 289.376 350.293L288.552 375.676C288.461 378.675 285.933 381.037 282.939 380.94L256.934 380.111C253.948 380.015 251.58 377.491 251.678 374.494L252.494 349.11C252.591 346.121 255.113 343.749 258.107 343.846L258.105 343.854ZM256.468 394.363L282.465 395.191C285.451 395.286 287.826 397.82 287.729 400.809L286.915 426.185C286.818 429.174 284.286 431.552 281.3 431.457L255.303 430.629C252.318 430.534 249.942 428.008 250.04 425.011L250.854 399.635C250.951 396.646 253.475 394.266 256.468 394.363ZM254.839 444.873L280.845 445.703C283.83 445.798 286.198 448.322 286.102 451.311L285.287 476.688C285.189 479.685 282.667 482.057 279.673 481.96L253.668 481.13C250.682 481.035 248.306 478.509 248.404 475.512L249.219 450.135C249.315 447.147 251.846 444.776 254.831 444.872L254.839 444.873ZM253.204 495.374L279.209 496.204C282.196 496.291 284.563 498.823 284.474 501.814L283.658 527.199C283.562 530.187 281.031 532.558 278.046 532.462L252.041 531.633C249.053 531.546 246.687 529.013 246.783 526.024L247.599 500.64C247.696 497.651 250.219 495.279 253.212 495.376L253.204 495.374ZM311.461 345.564L337.466 346.393C340.452 346.489 342.828 349.015 342.73 352.011L341.914 377.396C341.817 380.385 339.287 382.755 336.301 382.66L310.296 381.83C307.309 381.743 304.942 379.211 305.039 376.222L305.855 350.837C305.951 347.849 308.474 345.477 311.459 345.572L311.461 345.564ZM309.834 396.066L335.839 396.896C338.833 396.993 341.201 399.517 341.103 402.514L340.288 427.891C340.19 430.888 337.667 433.259 334.674 433.163L308.669 432.333C305.683 432.238 303.317 429.706 303.413 426.717L304.228 401.34C304.324 398.351 306.847 395.979 309.832 396.074L309.834 396.066ZM308.197 446.575L334.202 447.405C337.189 447.492 339.556 450.024 339.467 453.015L338.645 478.39C338.556 481.38 336.024 483.759 333.03 483.662L307.025 482.832C304.04 482.737 301.681 480.206 301.77 477.216L302.592 451.841C302.689 448.852 305.211 446.48 308.197 446.575ZM306.568 497.086L332.573 497.916C335.559 498.011 337.935 500.537 337.837 503.533L337.021 528.918C336.924 531.907 334.393 534.277 331.408 534.182L305.403 533.352C302.417 533.257 300.049 530.733 300.146 527.744L300.962 502.359C301.058 499.371 303.581 496.999 306.566 497.094L306.568 497.086ZM364.827 347.268L390.832 348.097C393.825 348.194 396.185 350.717 396.087 353.713L395.271 379.098C395.175 382.087 392.66 384.461 389.667 384.364L363.661 383.534C360.676 383.439 358.3 380.913 358.396 377.924L359.212 352.539C359.31 349.543 361.839 347.18 364.825 347.276L364.827 347.268ZM363.191 397.768L389.196 398.598C392.184 398.685 394.55 401.217 394.452 404.214L393.63 429.589C393.541 432.58 391.017 434.96 388.023 434.863L362.018 434.033C359.033 433.938 356.666 431.406 356.763 428.417L357.577 403.04C357.673 400.051 360.198 397.672 363.191 397.768ZM361.562 448.279L387.567 449.109C390.553 449.204 392.921 451.728 392.823 454.725L392.009 480.102C391.912 483.091 389.39 485.462 386.404 485.367L360.399 484.538C357.413 484.442 355.037 481.917 355.135 478.92L355.95 453.543C356.046 450.554 358.577 448.184 361.562 448.279ZM359.935 498.782L385.94 499.611C388.935 499.7 391.294 502.231 391.197 505.219L390.381 530.604C390.285 533.593 387.77 535.967 384.777 535.87L358.772 535.04C355.786 534.945 353.41 532.419 353.506 529.43L354.322 504.045C354.419 501.057 356.95 498.686 359.935 498.782ZM418.186 348.962L444.191 349.791C447.176 349.886 449.545 352.411 449.448 355.399L448.624 380.783C448.535 383.773 446.005 386.143 443.019 386.048L417.014 385.218C414.029 385.123 411.661 382.599 411.759 379.602L412.575 354.217C412.671 351.229 415.194 348.857 418.179 348.952L418.186 348.962ZM471.558 350.675L497.563 351.505C500.548 351.6 502.916 354.124 502.818 357.121L502.002 382.506C501.906 385.495 499.383 387.866 496.398 387.771L470.392 386.942C467.399 386.845 465.031 384.321 465.127 381.332L465.943 355.947C466.04 352.958 468.562 350.586 471.556 350.683L471.558 350.675ZM429.931 400.458L483.488 402.168C493.31 402.481 501.076 410.784 500.76 420.609L497.495 521.586C497.179 531.411 488.887 539.198 479.065 538.886L425.509 537.176C415.695 536.865 407.911 528.566 408.237 518.735L411.502 417.757C411.819 407.925 420.11 400.145 429.931 400.458ZM259.733 293.351L285.73 294.179C288.723 294.276 291.09 296.808 290.993 299.797L290.177 325.182C290.081 328.171 287.558 330.543 284.565 330.446L258.567 329.618C255.582 329.523 253.204 327.005 253.302 324.008L254.118 298.623C254.215 295.634 256.745 293.264 259.731 293.359" fill="#2D4AF1"/>
<path d="M313.09 295.053L313.218 291.055L313.218 291.055L313.09 295.053ZM339.095 295.883L338.968 299.881L338.968 299.881L339.095 295.883ZM344.352 301.491L340.354 301.362L340.354 301.363L344.352 301.491ZM343.536 326.876L339.538 326.747L339.538 326.756L343.536 326.876ZM337.924 332.14L338.053 328.142L338.051 328.142L337.924 332.14ZM311.919 331.31L312.046 327.312L312.046 327.312L311.919 331.31ZM306.669 325.704L310.667 325.833L310.667 325.832L306.669 325.704ZM307.485 300.319L303.487 300.19L303.487 300.19L307.485 300.319ZM366.456 296.757L366.583 292.759L363.217 292.652L362.538 295.95L366.456 296.757ZM392.461 297.587L392.333 301.585L392.333 301.585L392.461 297.587ZM397.716 303.203L393.718 303.074L393.718 303.074L397.716 303.203ZM396.9 328.588L400.898 328.717L400.898 328.716L396.9 328.588ZM391.296 333.853L391.168 337.851L391.168 337.851L391.296 333.853ZM365.29 333.024L365.161 337.021L365.163 337.022L365.29 333.024ZM360.025 327.414L364.023 327.543L364.023 327.542L360.025 327.414ZM360.841 302.029L356.843 301.9L356.843 301.9L360.841 302.029ZM366.454 296.765L366.325 300.763L369.692 300.872L370.372 297.572L366.454 296.765ZM419.821 298.461L419.949 294.463L416.582 294.355L415.903 297.654L419.821 298.461ZM445.826 299.29L445.955 295.292L445.954 295.292L445.826 299.29ZM451.082 304.907L447.084 304.777L447.084 304.778L451.082 304.907ZM450.266 330.291L454.264 330.42L454.264 330.42L450.266 330.291ZM444.653 335.555L444.525 339.553L444.534 339.553L444.653 335.555ZM418.648 334.726L418.775 330.728L418.775 330.728L418.648 334.726ZM413.391 329.117L417.389 329.248L417.389 329.246L413.391 329.117ZM414.207 303.733L410.209 303.603L410.209 303.604L414.207 303.733ZM419.819 298.469L419.692 302.467L423.058 302.574L423.737 299.275L419.819 298.469ZM473.188 300.156L473.059 304.154L473.061 304.154L473.188 300.156ZM499.193 300.986L499.066 304.984L499.066 304.984L499.193 300.986ZM504.442 306.593L500.445 306.463L500.444 306.464L504.442 306.593ZM503.626 331.977L499.628 331.849L499.628 331.859L503.626 331.977ZM498.022 337.243L497.894 341.241L497.894 341.241L498.022 337.243ZM472.017 336.413L472.144 332.415L472.144 332.415L472.017 336.413ZM466.759 330.805L470.757 330.934L470.757 330.934L466.759 330.805ZM467.575 305.42L463.578 305.291L463.578 305.292L467.575 305.42ZM258.105 343.854L254.188 343.047L253.229 347.7L257.978 347.852L258.105 343.854ZM284.11 344.683L283.983 348.681L283.983 348.681L284.11 344.683ZM289.376 350.293L293.374 350.423L293.374 350.412L289.376 350.293ZM288.552 375.676L284.554 375.547L284.553 375.556L288.552 375.676ZM282.939 380.94L283.068 376.942L283.066 376.942L282.939 380.94ZM256.934 380.111L257.061 376.113L257.061 376.113L256.934 380.111ZM251.678 374.494L255.676 374.625L255.676 374.623L251.678 374.494ZM252.494 349.11L248.496 348.98L248.496 348.981L252.494 349.11ZM258.107 343.846L262.025 344.652L262.983 340.001L258.236 339.848L258.107 343.846ZM256.468 394.363L256.339 398.361L256.341 398.361L256.468 394.363ZM282.465 395.191L282.593 391.193L282.593 391.193L282.465 395.191ZM287.729 400.809L283.731 400.679L283.731 400.68L287.729 400.809ZM286.915 426.185L290.913 426.314L290.913 426.314L286.915 426.185ZM281.3 431.457L281.428 427.459L281.428 427.459L281.3 431.457ZM255.303 430.629L255.176 434.627L255.176 434.627L255.303 430.629ZM250.04 425.011L254.038 425.142L254.038 425.14L250.04 425.011ZM250.854 399.635L246.856 399.505L246.856 399.506L250.854 399.635ZM254.839 444.873L254.033 448.791L254.369 448.86L254.712 448.871L254.839 444.873ZM280.845 445.703L280.717 449.701L280.717 449.701L280.845 445.703ZM286.102 451.311L282.104 451.182L282.104 451.183L286.102 451.311ZM285.287 476.688L289.285 476.819L289.285 476.816L285.287 476.688ZM279.673 481.96L279.802 477.962L279.801 477.962L279.673 481.96ZM253.668 481.13L253.796 477.132L253.795 477.132L253.668 481.13ZM248.404 475.512L252.402 475.643L252.402 475.641L248.404 475.512ZM249.219 450.135L245.221 450.006L245.221 450.007L249.219 450.135ZM254.831 444.872L255.638 440.954L255.302 440.885L254.959 440.874L254.831 444.872ZM253.204 495.374L253.332 491.376L252.397 499.292L253.204 495.374ZM279.209 496.204L279.082 500.202L279.093 500.202L279.209 496.204ZM284.474 501.814L288.472 501.942L288.473 501.932L284.474 501.814ZM283.658 527.199L287.656 527.328L287.656 527.327L283.658 527.199ZM278.046 532.462L277.918 536.46L277.918 536.46L278.046 532.462ZM252.041 531.633L252.168 527.635L252.157 527.634L252.041 531.633ZM246.783 526.024L250.781 526.154L250.781 526.153L246.783 526.024ZM247.599 500.64L243.602 500.511L243.602 500.511L247.599 500.64ZM253.212 495.376L253.083 499.374L254.019 491.458L253.212 495.376ZM311.461 345.564L311.589 341.566L308.223 341.458L307.543 344.757L311.461 345.564ZM337.466 346.393L337.339 350.391L337.339 350.391L337.466 346.393ZM342.73 352.011L338.732 351.88L338.732 351.883L342.73 352.011ZM341.914 377.396L345.912 377.525L345.912 377.525L341.914 377.396ZM336.301 382.66L336.174 386.658L336.174 386.658L336.301 382.66ZM310.296 381.83L310.424 377.832L310.413 377.832L310.296 381.83ZM305.039 376.222L309.037 376.351L309.037 376.351L305.039 376.222ZM305.855 350.837L301.857 350.708L301.857 350.709L305.855 350.837ZM311.459 345.572L311.332 349.57L314.698 349.677L315.377 346.379L311.459 345.572ZM309.834 396.066L309.961 392.068L306.595 391.961L305.916 395.26L309.834 396.066ZM335.839 396.896L335.968 392.898L335.966 392.898L335.839 396.896ZM341.103 402.514L337.105 402.383L337.105 402.386L341.103 402.514ZM340.288 427.891L344.286 428.022L344.286 428.019L340.288 427.891ZM334.674 433.163L334.803 429.165L334.801 429.165L334.674 433.163ZM308.669 432.333L308.796 428.335L308.796 428.335L308.669 432.333ZM303.413 426.717L307.411 426.846L307.411 426.845L303.413 426.717ZM304.228 401.34L300.23 401.211L300.23 401.212L304.228 401.34ZM309.832 396.074L309.705 400.072L313.071 400.18L313.75 396.881L309.832 396.074ZM308.197 446.575L308.324 442.577L308.324 442.577L308.197 446.575ZM334.202 447.405L334.074 451.403L334.085 451.403L334.202 447.405ZM339.467 453.015L343.465 453.144L343.465 453.133L339.467 453.015ZM338.645 478.39L334.647 478.26L334.647 478.272L338.645 478.39ZM333.03 483.662L333.16 479.664L333.158 479.664L333.03 483.662ZM307.025 482.832L307.153 478.834L307.153 478.834L307.025 482.832ZM301.77 477.216L297.772 477.086L297.772 477.098L301.77 477.216ZM302.592 451.841L306.59 451.97L306.59 451.97L302.592 451.841ZM306.568 497.086L306.696 493.088L303.329 492.981L302.65 496.279L306.568 497.086ZM332.573 497.916L332.445 501.913L332.446 501.913L332.573 497.916ZM337.837 503.533L333.839 503.403L333.839 503.405L337.837 503.533ZM337.021 528.918L341.019 529.047L341.019 529.047L337.021 528.918ZM331.408 534.182L331.28 538.18L331.28 538.18L331.408 534.182ZM305.403 533.352L305.53 529.355L305.53 529.355L305.403 533.352ZM300.146 527.744L304.144 527.873L304.144 527.873L300.146 527.744ZM300.962 502.359L296.964 502.23L296.964 502.231L300.962 502.359ZM306.566 497.094L306.439 501.092L309.805 501.199L310.484 497.901L306.566 497.094ZM364.827 347.268L364.954 343.27L361.588 343.162L360.909 346.461L364.827 347.268ZM390.832 348.097L390.961 344.099L390.959 344.099L390.832 348.097ZM396.087 353.713L392.089 353.582L392.089 353.585L396.087 353.713ZM395.271 379.098L399.269 379.227L399.269 379.227L395.271 379.098ZM389.667 384.364L389.796 380.366L389.794 380.366L389.667 384.364ZM363.661 383.534L363.789 379.536L363.789 379.536L363.661 383.534ZM358.396 377.924L362.394 378.053L362.394 378.053L358.396 377.924ZM359.212 352.539L355.214 352.408L355.214 352.411L359.212 352.539ZM364.825 347.276L364.697 351.274L368.063 351.381L368.743 348.082L364.825 347.276ZM363.191 397.768L363.062 401.766L363.064 401.766L363.191 397.768ZM389.196 398.598L389.069 402.596L389.08 402.596L389.196 398.598ZM394.452 404.214L390.454 404.083L390.454 404.085L394.452 404.214ZM393.63 429.589L389.632 429.46L389.631 429.471L393.63 429.589ZM388.023 434.863L388.153 430.865L388.151 430.865L388.023 434.863ZM362.018 434.033L362.146 430.035L362.146 430.035L362.018 434.033ZM356.763 428.417L360.761 428.546L360.761 428.545L356.763 428.417ZM357.577 403.04L353.579 402.911L353.579 402.912L357.577 403.04ZM361.562 448.279L361.69 444.281L361.69 444.281L361.562 448.279ZM387.567 449.109L387.44 453.107L387.44 453.107L387.567 449.109ZM392.823 454.725L388.825 454.594L388.825 454.597L392.823 454.725ZM392.009 480.102L396.007 480.231L396.007 480.23L392.009 480.102ZM386.404 485.367L386.276 489.365L386.277 489.365L386.404 485.367ZM360.399 484.538L360.526 480.54L360.526 480.54L360.399 484.538ZM355.135 478.92L359.133 479.051L359.133 479.048L355.135 478.92ZM355.95 453.543L351.952 453.414L351.952 453.415L355.95 453.543ZM359.935 498.782L360.063 494.784L360.063 494.784L359.935 498.782ZM385.94 499.611L385.813 503.609L385.822 503.609L385.94 499.611ZM391.197 505.219L387.2 505.09L387.199 505.091L391.197 505.219ZM390.381 530.604L394.379 530.733L394.379 530.733L390.381 530.604ZM384.777 535.87L384.906 531.872L384.904 531.872L384.777 535.87ZM358.772 535.04L358.899 531.042L358.899 531.042L358.772 535.04ZM353.506 529.43L357.504 529.559L357.504 529.559L353.506 529.43ZM354.322 504.045L350.325 503.916L350.324 503.917L354.322 504.045ZM418.186 348.962L414.844 351.159L415.984 352.893L418.058 352.96L418.186 348.962ZM444.191 349.791L444.063 353.789L444.063 353.789L444.191 349.791ZM449.448 355.399L453.446 355.529L453.446 355.528L449.448 355.399ZM448.624 380.783L444.626 380.653L444.626 380.664L448.624 380.783ZM443.019 386.048L442.892 390.046L442.892 390.046L443.019 386.048ZM417.014 385.218L417.142 381.221L417.142 381.221L417.014 385.218ZM411.759 379.602L415.757 379.733L415.757 379.731L411.759 379.602ZM412.575 354.217L408.577 354.088L408.577 354.089L412.575 354.217ZM418.179 348.952L421.521 346.754L420.381 345.02L418.307 344.954L418.179 348.952ZM471.558 350.675L471.685 346.677L468.319 346.57L467.64 349.868L471.558 350.675ZM497.563 351.505L497.435 355.503L497.435 355.503L497.563 351.505ZM502.818 357.121L498.82 356.99L498.82 356.992L502.818 357.121ZM502.002 382.506L506 382.635L506 382.634L502.002 382.506ZM496.398 387.771L496.27 391.769L496.27 391.769L496.398 387.771ZM470.392 386.942L470.263 390.939L470.265 390.94L470.392 386.942ZM465.127 381.332L469.125 381.461L469.125 381.46L465.127 381.332ZM465.943 355.947L461.945 355.818L461.945 355.818L465.943 355.947ZM471.556 350.683L471.427 354.681L474.794 354.79L475.474 351.49L471.556 350.683ZM429.931 400.458L430.059 396.46L430.059 396.46L429.931 400.458ZM483.488 402.168L483.361 406.166L483.361 406.166L483.488 402.168ZM500.76 420.609L504.758 420.738L504.758 420.737L500.76 420.609ZM497.495 521.586L493.497 521.457L493.497 521.458L497.495 521.586ZM479.065 538.886L478.938 542.884L478.938 542.884L479.065 538.886ZM425.509 537.176L425.636 533.178L425.635 533.178L425.509 537.176ZM408.237 518.735L412.234 518.867L412.234 518.864L408.237 518.735ZM411.502 417.757L415.5 417.887L415.5 417.886L411.502 417.757ZM285.73 294.179L285.859 290.181L285.857 290.181L285.73 294.179ZM290.993 299.797L286.995 299.668L286.995 299.669L290.993 299.797ZM290.177 325.182L294.175 325.311L294.175 325.31L290.177 325.182ZM284.565 330.446L284.694 326.448L284.692 326.448L284.565 330.446ZM258.567 329.618L258.44 333.616L258.44 333.616L258.567 329.618ZM253.302 324.008L257.3 324.139L257.3 324.136L253.302 324.008ZM254.118 298.623L250.12 298.494L250.12 298.495L254.118 298.623ZM313.09 295.053L312.962 299.051L338.968 299.881L339.095 295.883L339.223 291.885L313.218 291.055L313.09 295.053ZM339.095 295.883L338.968 299.881C339.744 299.906 340.38 300.581 340.354 301.362L344.352 301.491L348.35 301.62C348.518 296.423 344.417 292.051 339.223 291.885L339.095 295.883ZM344.352 301.491L340.354 301.363L339.538 326.747L343.536 326.876L347.534 327.004L348.35 301.62L344.352 301.491ZM343.536 326.876L339.538 326.756C339.515 327.531 338.846 328.168 338.053 328.142L337.924 332.14L337.794 336.138C342.988 336.306 347.378 332.218 347.535 326.996L343.536 326.876ZM337.924 332.14L338.051 328.142L312.046 327.312L311.919 331.31L311.791 335.308L337.796 336.138L337.924 332.14ZM311.919 331.31L312.046 327.312C311.276 327.288 310.642 326.62 310.667 325.833L306.669 325.704L302.671 325.575C302.504 330.765 306.59 335.142 311.791 335.308L311.919 331.31ZM306.669 325.704L310.667 325.832L311.483 300.447L307.485 300.319L303.487 300.19L302.671 325.575L306.669 325.704ZM307.485 300.319L311.483 300.448C311.509 299.659 312.192 299.027 312.963 299.051L313.09 295.053L313.218 291.055C308.017 290.889 303.655 295.001 303.487 300.19L307.485 300.319ZM366.456 296.757L366.328 300.755L392.333 301.585L392.461 297.587L392.588 293.589L366.583 292.759L366.456 296.757ZM392.461 297.587L392.333 301.585C393.1 301.609 393.744 302.284 393.718 303.074L397.716 303.203L401.714 303.332C401.882 298.144 397.792 293.755 392.588 293.589L392.461 297.587ZM397.716 303.203L393.718 303.074L392.902 328.459L396.9 328.588L400.898 328.716L401.714 303.331L397.716 303.203ZM396.9 328.588L392.902 328.459C392.877 329.248 392.194 329.88 391.423 329.855L391.296 333.853L391.168 337.851C396.369 338.017 400.731 333.905 400.898 328.717L396.9 328.588ZM391.296 333.853L391.423 329.855L365.418 329.026L365.29 333.024L365.163 337.022L391.168 337.851L391.296 333.853ZM365.29 333.024L365.42 329.026C364.63 329 363.998 328.319 364.023 327.543L360.025 327.414L356.027 327.285C355.859 332.486 359.964 336.853 365.161 337.021L365.29 333.024ZM360.025 327.414L364.023 327.542L364.839 302.157L360.841 302.029L356.843 301.9L356.027 327.285L360.025 327.414ZM360.841 302.029L364.839 302.158C364.864 301.372 365.544 300.738 366.325 300.763L366.454 296.765L366.583 292.767C361.377 292.599 357.011 296.708 356.843 301.9L360.841 302.029ZM366.454 296.765L370.372 297.572L370.373 297.564L366.456 296.757L362.538 295.95L362.536 295.958L366.454 296.765ZM419.821 298.461L419.693 302.459L445.699 303.288L445.826 299.29L445.954 295.292L419.949 294.463L419.821 298.461ZM445.826 299.29L445.697 303.288C446.471 303.313 447.109 303.985 447.084 304.777L451.082 304.907L455.08 305.036C455.247 299.85 451.168 295.461 445.955 295.292L445.826 299.29ZM451.082 304.907L447.084 304.778L446.268 330.163L450.266 330.291L454.264 330.42L455.08 305.035L451.082 304.907ZM450.266 330.291L446.268 330.162C446.243 330.939 445.571 331.581 444.772 331.557L444.653 335.555L444.534 339.553C449.725 339.707 454.096 335.622 454.264 330.42L450.266 330.291ZM444.653 335.555L444.781 331.557L418.775 330.728L418.648 334.726L418.52 338.724L444.525 339.553L444.653 335.555ZM418.648 334.726L418.775 330.728C417.994 330.703 417.363 330.03 417.389 329.248L413.391 329.117L409.393 328.986C409.222 334.198 413.331 338.558 418.52 338.724L418.648 334.726ZM413.391 329.117L417.389 329.246L418.205 303.861L414.207 303.733L410.209 303.604L409.393 328.989L413.391 329.117ZM414.207 303.733L418.205 303.862C418.23 303.082 418.912 302.442 419.692 302.467L419.819 298.469L419.947 294.471C414.755 294.305 410.377 298.406 410.209 303.603L414.207 303.733ZM419.819 298.469L423.737 299.275L423.739 299.267L419.821 298.461L415.903 297.654L415.902 297.662L419.819 298.469ZM473.188 300.156L473.061 304.154L499.066 304.984L499.193 300.986L499.321 296.988L473.316 296.158L473.188 300.156ZM499.193 300.986L499.066 304.984C499.836 305.008 500.47 305.676 500.445 306.463L504.442 306.593L508.44 306.722C508.608 301.531 504.522 297.154 499.321 296.988L499.193 300.986ZM504.442 306.593L500.444 306.464L499.628 331.849L503.626 331.977L507.624 332.106L508.44 306.721L504.442 306.593ZM503.626 331.977L499.628 331.859C499.605 332.631 498.93 333.27 498.149 333.245L498.022 337.243L497.894 341.241C503.084 341.406 507.471 337.305 507.625 332.096L503.626 331.977ZM498.022 337.243L498.149 333.245L472.144 332.415L472.017 336.413L471.889 340.411L497.894 341.241L498.022 337.243ZM472.017 336.413L472.144 332.415C471.368 332.391 470.732 331.715 470.757 330.934L466.759 330.805L462.762 330.676C462.594 335.873 466.694 340.246 471.889 340.411L472.017 336.413ZM466.759 330.805L470.757 330.934L471.573 305.549L467.575 305.42L463.578 305.292L462.762 330.676L466.759 330.805ZM467.575 305.42L471.573 305.549C471.599 304.764 472.278 304.129 473.059 304.154L473.188 300.156L473.318 296.158C468.111 295.99 463.745 300.099 463.578 305.291L467.575 305.42ZM258.105 343.854L257.978 347.852L283.983 348.681L284.11 344.683L284.238 340.685L258.233 339.856L258.105 343.854ZM284.11 344.683L283.983 348.681C284.756 348.706 285.401 349.381 285.377 350.175L289.376 350.293L293.374 350.412C293.527 345.224 289.435 340.851 284.238 340.685L284.11 344.683ZM289.376 350.293L285.378 350.163L284.554 375.547L288.552 375.676L292.549 375.806L293.374 350.423L289.376 350.293ZM288.552 375.676L284.553 375.556C284.53 376.332 283.862 376.968 283.068 376.942L282.939 380.94L282.81 384.938C288.003 385.106 292.393 381.018 292.55 375.797L288.552 375.676ZM282.939 380.94L283.066 376.942L257.061 376.113L256.934 380.111L256.806 384.109L282.811 384.938L282.939 380.94ZM256.934 380.111L257.061 376.113C256.289 376.088 255.65 375.416 255.676 374.625L251.678 374.494L247.68 374.363C247.51 379.566 251.608 383.943 256.806 384.109L256.934 380.111ZM251.678 374.494L255.676 374.623L256.492 349.238L252.494 349.11L248.496 348.981L247.68 374.366L251.678 374.494ZM252.494 349.11L256.492 349.239C256.518 348.453 257.197 347.818 257.978 347.844L258.107 343.846L258.236 339.848C253.03 339.679 248.664 343.788 248.496 348.98L252.494 349.11ZM258.107 343.846L254.189 343.039L254.188 343.047L258.105 343.854L262.023 344.661L262.025 344.652L258.107 343.846ZM256.468 394.363L256.341 398.361L282.338 399.189L282.465 395.191L282.593 391.193L256.596 390.365L256.468 394.363ZM282.465 395.191L282.338 399.189C283.112 399.213 283.756 399.896 283.731 400.679L287.729 400.809L291.727 400.938C291.895 395.744 287.79 391.358 282.593 391.193L282.465 395.191ZM287.729 400.809L283.731 400.68L282.917 426.057L286.915 426.185L290.913 426.314L291.727 400.937L287.729 400.809ZM286.915 426.185L282.917 426.056C282.891 426.843 282.201 427.484 281.428 427.459L281.3 431.457L281.173 435.455C286.371 435.621 290.745 431.506 290.913 426.314L286.915 426.185ZM281.3 431.457L281.428 427.459L255.431 426.631L255.303 430.629L255.176 434.627L281.173 435.455L281.3 431.457ZM255.303 430.629L255.431 426.631C254.652 426.606 254.012 425.927 254.038 425.142L250.04 425.011L246.042 424.88C245.871 430.09 249.984 434.462 255.176 434.627L255.303 430.629ZM250.04 425.011L254.038 425.14L254.852 399.763L250.854 399.635L246.856 399.506L246.042 424.883L250.04 425.011ZM250.854 399.635L254.852 399.764C254.878 398.972 255.565 398.336 256.339 398.361L256.468 394.363L256.598 390.365C251.385 390.196 247.024 394.32 246.856 399.505L250.854 399.635ZM254.839 444.873L254.712 448.871L280.717 449.701L280.845 445.703L280.972 441.705L254.967 440.875L254.839 444.873ZM280.845 445.703L280.717 449.701C281.493 449.726 282.129 450.401 282.104 451.182L286.102 451.311L290.1 451.44C290.267 446.243 286.167 441.871 280.972 441.705L280.845 445.703ZM286.102 451.311L282.104 451.183L281.289 476.56L285.287 476.688L289.285 476.816L290.1 451.439L286.102 451.311ZM285.287 476.688L281.29 476.557C281.263 477.356 280.579 477.987 279.802 477.962L279.673 481.96L279.544 485.958C284.754 486.126 289.115 482.013 289.285 476.819L285.287 476.688ZM279.673 481.96L279.801 477.962L253.796 477.132L253.668 481.13L253.54 485.128L279.546 485.958L279.673 481.96ZM253.668 481.13L253.795 477.132C253.016 477.107 252.376 476.428 252.402 475.643L248.404 475.512L244.406 475.381C244.236 480.59 248.348 484.963 253.54 485.128L253.668 481.13ZM248.404 475.512L252.402 475.641L253.217 450.264L249.219 450.135L245.221 450.007L244.406 475.384L248.404 475.512ZM249.219 450.135L253.217 450.264C253.242 449.484 253.924 448.845 254.704 448.87L254.831 444.872L254.959 440.874C249.767 440.708 245.389 444.809 245.221 450.006L249.219 450.135ZM254.831 444.872L254.025 448.789L254.033 448.791L254.839 444.873L255.646 440.955L255.638 440.954L254.831 444.872ZM253.204 495.374L253.077 499.372L279.082 500.202L279.209 496.204L279.337 492.206L253.332 491.376L253.204 495.374ZM279.209 496.204L279.093 500.202C279.849 500.224 280.5 500.891 280.476 501.695L284.474 501.814L288.473 501.932C288.626 496.755 284.544 492.358 279.326 492.205L279.209 496.204ZM284.474 501.814L280.477 501.685L279.661 527.07L283.658 527.199L287.656 527.327L288.472 501.942L284.474 501.814ZM283.658 527.199L279.661 527.069C279.635 527.849 278.953 528.489 278.173 528.464L278.046 532.462L277.918 536.46C283.11 536.626 287.489 532.525 287.656 527.328L283.658 527.199ZM278.046 532.462L278.173 528.464L252.168 527.635L252.041 531.633L251.913 535.631L277.918 536.46L278.046 532.462ZM252.041 531.633L252.157 527.634C251.399 527.612 250.756 526.945 250.781 526.154L246.783 526.024L242.786 525.895C242.618 531.082 246.708 535.479 251.924 535.631L252.041 531.633ZM246.783 526.024L250.781 526.153L251.597 500.768L247.599 500.64L243.602 500.511L242.786 525.896L246.783 526.024ZM247.599 500.64L251.597 500.769C251.623 499.983 252.302 499.348 253.083 499.374L253.212 495.376L253.342 491.378C248.135 491.209 243.769 495.318 243.602 500.511L247.599 500.64ZM253.212 495.376L254.019 491.458L254.011 491.456L253.204 495.374L252.397 499.292L252.405 499.294L253.212 495.376ZM311.461 345.564L311.334 349.562L337.339 350.391L337.466 346.393L337.594 342.395L311.589 341.566L311.461 345.564ZM337.466 346.393L337.339 350.391C338.118 350.416 338.758 351.096 338.732 351.88L342.73 352.011L346.728 352.142C346.898 346.933 342.786 342.561 337.594 342.395L337.466 346.393ZM342.73 352.011L338.732 351.883L337.916 377.268L341.914 377.396L345.912 377.525L346.728 352.14L342.73 352.011ZM341.914 377.396L337.916 377.267C337.891 378.047 337.208 378.687 336.429 378.662L336.301 382.66L336.174 386.658C341.365 386.824 345.744 382.723 345.912 377.525L341.914 377.396ZM336.301 382.66L336.429 378.662L310.424 377.832L310.296 381.83L310.168 385.828L336.174 386.658L336.301 382.66ZM310.296 381.83L310.413 377.832C309.654 377.81 309.011 377.143 309.037 376.351L305.039 376.222L301.041 376.093C300.873 381.279 304.964 385.677 310.179 385.829L310.296 381.83ZM305.039 376.222L309.037 376.351L309.853 350.966L305.855 350.837L301.857 350.709L301.041 376.094L305.039 376.222ZM305.855 350.837L309.853 350.966C309.878 350.177 310.561 349.545 311.332 349.57L311.459 345.572L311.587 341.574C306.386 341.408 302.024 345.52 301.857 350.708L305.855 350.837ZM311.459 345.572L315.377 346.379L315.379 346.371L311.461 345.564L307.543 344.757L307.542 344.765L311.459 345.572ZM309.834 396.066L309.706 400.064L335.711 400.894L335.839 396.896L335.966 392.898L309.961 392.068L309.834 396.066ZM335.839 396.896L335.71 400.894C336.496 400.919 337.13 401.596 337.105 402.383L341.103 402.514L345.1 402.645C345.271 397.438 341.169 393.066 335.968 392.898L335.839 396.896ZM341.103 402.514L337.105 402.386L336.29 427.762L340.288 427.891L344.286 428.019L345.1 402.642L341.103 402.514ZM340.288 427.891L336.29 427.76C336.264 428.559 335.58 429.19 334.803 429.165L334.674 433.163L334.544 437.161C339.755 437.329 344.116 433.216 344.286 428.022L340.288 427.891ZM334.674 433.163L334.801 429.165L308.796 428.335L308.669 432.333L308.541 436.331L334.546 437.161L334.674 433.163ZM308.669 432.333L308.796 428.335C308.029 428.311 307.386 427.636 307.411 426.846L303.413 426.717L299.415 426.588C299.248 431.775 303.337 436.165 308.541 436.331L308.669 432.333ZM303.413 426.717L307.411 426.845L308.225 401.468L304.228 401.34L300.23 401.212L299.415 426.588L303.413 426.717ZM304.228 401.34L308.225 401.469C308.251 400.68 308.934 400.048 309.705 400.072L309.832 396.074L309.96 392.076C304.759 391.911 300.397 396.022 300.23 401.211L304.228 401.34ZM309.832 396.074L313.75 396.881L313.752 396.873L309.834 396.066L305.916 395.26L305.914 395.268L309.832 396.074ZM308.197 446.575L308.069 450.573L334.074 451.403L334.202 447.405L334.33 443.407L308.324 442.577L308.197 446.575ZM334.202 447.405L334.085 451.403C334.841 451.425 335.493 452.092 335.469 452.897L339.467 453.015L343.465 453.133C343.619 447.956 339.537 443.559 334.319 443.407L334.202 447.405ZM339.467 453.015L335.469 452.885L334.647 478.26L338.645 478.39L342.643 478.52L343.465 453.144L339.467 453.015ZM338.645 478.39L334.647 478.272C334.624 479.046 333.945 479.689 333.16 479.664L333.03 483.662L332.901 487.66C338.104 487.828 342.489 483.715 342.643 478.508L338.645 478.39ZM333.03 483.662L333.158 479.664L307.153 478.834L307.025 482.832L306.898 486.83L332.903 487.66L333.03 483.662ZM307.025 482.832L307.153 478.834C306.395 478.81 305.744 478.143 305.768 477.334L301.77 477.216L297.772 477.098C297.619 482.27 301.685 486.664 306.898 486.83L307.025 482.832ZM301.77 477.216L305.768 477.346L306.59 451.97L302.592 451.841L298.594 451.711L297.772 477.086L301.77 477.216ZM302.592 451.841L306.59 451.97C306.616 451.181 307.299 450.549 308.069 450.573L308.197 446.575L308.324 442.577C303.124 442.411 298.762 446.523 298.594 451.712L302.592 451.841ZM306.568 497.086L306.44 501.084L332.445 501.913L332.573 497.916L332.701 493.918L306.696 493.088L306.568 497.086ZM332.573 497.916L332.446 501.913C333.225 501.938 333.864 502.618 333.839 503.403L337.837 503.533L341.835 503.664C342.005 498.455 337.892 494.083 332.701 493.918L332.573 497.916ZM337.837 503.533L333.839 503.405L333.023 528.79L337.021 528.918L341.019 529.047L341.835 503.662L337.837 503.533ZM337.021 528.918L333.023 528.789C332.998 529.569 332.315 530.209 331.535 530.184L331.408 534.182L331.28 538.18C336.472 538.346 340.851 534.245 341.019 529.047L337.021 528.918ZM331.408 534.182L331.535 530.184L305.53 529.355L305.403 533.352L305.275 537.35L331.28 538.18L331.408 534.182ZM305.403 533.352L305.53 529.355C304.754 529.33 304.118 528.654 304.144 527.873L300.146 527.744L296.148 527.615C295.98 532.812 300.081 537.185 305.275 537.35L305.403 533.352ZM300.146 527.744L304.144 527.873L304.96 502.488L300.962 502.359L296.964 502.231L296.148 527.616L300.146 527.744ZM300.962 502.359L304.96 502.488C304.985 501.699 305.668 501.067 306.439 501.092L306.566 497.094L306.694 493.096C301.493 492.93 297.131 497.042 296.964 502.23L300.962 502.359ZM306.566 497.094L310.484 497.901L310.486 497.893L306.568 497.086L302.65 496.279L302.649 496.287L306.566 497.094ZM364.827 347.268L364.699 351.265L390.704 352.095L390.832 348.097L390.959 344.099L364.954 343.27L364.827 347.268ZM390.832 348.097L390.702 352.095C391.482 352.12 392.115 352.789 392.089 353.582L396.087 353.713L400.085 353.844C400.255 348.644 396.168 344.268 390.961 344.099L390.832 348.097ZM396.087 353.713L392.089 353.585L391.273 378.97L395.271 379.098L399.269 379.227L400.085 353.842L396.087 353.713ZM395.271 379.098L391.273 378.969C391.248 379.764 390.568 380.391 389.796 380.366L389.667 384.364L389.537 388.362C394.753 388.53 399.102 384.41 399.269 379.227L395.271 379.098ZM389.667 384.364L389.794 380.366L363.789 379.536L363.661 383.534L363.534 387.532L389.539 388.362L389.667 384.364ZM363.661 383.534L363.789 379.536C363.006 379.511 362.369 378.828 362.394 378.053L358.396 377.924L354.398 377.795C354.23 382.998 358.346 387.367 363.534 387.532L363.661 383.534ZM358.396 377.924L362.394 378.053L363.21 352.668L359.212 352.539L355.214 352.411L354.398 377.796L358.396 377.924ZM359.212 352.539L363.21 352.67C363.236 351.883 363.916 351.249 364.697 351.274L364.825 347.276L364.952 343.278C359.763 343.112 355.385 347.202 355.214 352.408L359.212 352.539ZM364.825 347.276L368.743 348.082L368.744 348.074L364.827 347.268L360.909 346.461L360.907 346.469L364.825 347.276ZM363.191 397.768L363.064 401.766L389.069 402.596L389.196 398.598L389.324 394.6L363.319 393.77L363.191 397.768ZM389.196 398.598L389.08 402.596C389.835 402.618 390.48 403.282 390.454 404.083L394.452 404.214L398.45 404.345C398.62 399.153 394.532 394.752 389.313 394.6L389.196 398.598ZM394.452 404.214L390.454 404.085L389.632 429.46L393.63 429.589L397.627 429.719L398.45 404.344L394.452 404.214ZM393.63 429.589L389.631 429.471C389.608 430.255 388.928 430.89 388.153 430.865L388.023 434.863L387.894 438.861C393.105 439.03 397.474 434.905 397.628 429.708L393.63 429.589ZM388.023 434.863L388.151 430.865L362.146 430.035L362.018 434.033L361.891 438.031L387.896 438.861L388.023 434.863ZM362.018 434.033L362.146 430.035C361.378 430.011 360.735 429.336 360.761 428.546L356.763 428.417L352.765 428.288C352.597 433.476 356.687 437.865 361.891 438.031L362.018 434.033ZM356.763 428.417L360.761 428.545L361.575 403.169L357.577 403.04L353.579 402.912L352.765 428.289L356.763 428.417ZM357.577 403.04L361.575 403.169C361.6 402.377 362.288 401.741 363.062 401.766L363.191 397.768L363.321 393.771C358.108 393.602 353.746 397.726 353.579 402.911L357.577 403.04ZM361.562 448.279L361.435 452.277L387.44 453.107L387.567 449.109L387.695 445.111L361.69 444.281L361.562 448.279ZM387.567 449.109L387.44 453.107C388.213 453.131 388.851 453.803 388.825 454.594L392.823 454.725L396.821 454.856C396.991 449.653 392.893 445.276 387.695 445.111L387.567 449.109ZM392.823 454.725L388.825 454.597L388.011 479.973L392.009 480.102L396.007 480.23L396.821 454.853L392.823 454.725ZM392.009 480.102L388.011 479.973C387.985 480.762 387.302 481.394 386.532 481.369L386.404 485.367L386.277 489.365C391.477 489.531 395.839 485.419 396.007 480.231L392.009 480.102ZM386.404 485.367L386.532 481.369L360.526 480.54L360.399 484.538L360.271 488.536L386.276 489.365L386.404 485.367ZM360.399 484.538L360.526 480.54C359.747 480.515 359.107 479.835 359.133 479.051L355.135 478.92L351.137 478.789C350.967 483.998 355.079 488.37 360.271 488.536L360.399 484.538ZM355.135 478.92L359.133 479.048L359.948 453.671L355.95 453.543L351.952 453.415L351.137 478.791L355.135 478.92ZM355.95 453.543L359.948 453.672C359.973 452.892 360.655 452.252 361.435 452.277L361.562 448.279L361.69 444.281C356.498 444.115 352.12 448.216 351.952 453.414L355.95 453.543ZM359.935 498.782L359.808 502.78L385.813 503.609L385.94 499.611L386.068 495.613L360.063 494.784L359.935 498.782ZM385.94 499.611L385.822 503.609C386.588 503.632 387.225 504.297 387.2 505.09L391.197 505.219L395.195 505.348C395.363 500.164 391.283 495.768 386.059 495.613L385.94 499.611ZM391.197 505.219L387.199 505.091L386.383 530.476L390.381 530.604L394.379 530.733L395.195 505.348L391.197 505.219ZM390.381 530.604L386.383 530.475C386.358 531.27 385.678 531.897 384.906 531.872L384.777 535.87L384.647 539.868C389.863 540.036 394.212 535.916 394.379 530.733L390.381 530.604ZM384.777 535.87L384.904 531.872L358.899 531.042L358.772 535.04L358.644 539.038L384.649 539.868L384.777 535.87ZM358.772 535.04L358.899 531.042C358.117 531.017 357.479 530.334 357.504 529.559L353.506 529.43L349.508 529.301C349.34 534.504 353.456 538.873 358.644 539.038L358.772 535.04ZM353.506 529.43L357.504 529.559L358.32 504.174L354.322 504.045L350.324 503.917L349.508 529.302L353.506 529.43ZM354.322 504.045L358.32 504.174C358.346 503.394 359.028 502.755 359.808 502.78L359.935 498.782L360.063 494.784C354.871 494.618 350.492 498.719 350.325 503.916L354.322 504.045ZM418.186 348.962L418.058 352.96L444.063 353.789L444.191 349.791L444.318 345.793L418.313 344.964L418.186 348.962ZM444.191 349.791L444.063 353.789C444.84 353.814 445.475 354.489 445.45 355.27L449.448 355.399L453.446 355.528C453.614 350.332 449.513 345.959 444.318 345.793L444.191 349.791ZM449.448 355.399L445.45 355.27L444.626 380.653L448.624 380.783L452.622 380.912L453.446 355.529L449.448 355.399ZM448.624 380.783L444.626 380.664C444.603 381.436 443.928 382.075 443.147 382.05L443.019 386.048L442.892 390.046C448.082 390.212 452.468 386.11 452.622 380.901L448.624 380.783ZM443.019 386.048L443.147 382.05L417.142 381.221L417.014 385.218L416.887 389.216L442.892 390.046L443.019 386.048ZM417.014 385.218L417.142 381.221C416.369 381.196 415.731 380.524 415.757 379.733L411.759 379.602L407.761 379.471C407.59 384.674 411.688 389.051 416.887 389.216L417.014 385.218ZM411.759 379.602L415.757 379.731L416.573 354.346L412.575 354.217L408.577 354.089L407.761 379.474L411.759 379.602ZM412.575 354.217L416.573 354.346C416.598 353.557 417.281 352.925 418.052 352.95L418.179 348.952L418.307 344.954C413.106 344.788 408.744 348.9 408.577 354.088L412.575 354.217ZM418.179 348.952L414.837 351.15L414.844 351.159L418.186 348.962L421.528 346.764L421.521 346.754L418.179 348.952ZM471.558 350.675L471.43 354.673L497.435 355.503L497.563 351.505L497.69 347.507L471.685 346.677L471.558 350.675ZM497.563 351.505L497.435 355.503C498.208 355.527 498.846 356.199 498.82 356.99L502.818 357.121L506.816 357.252C506.986 352.049 502.889 347.672 497.69 347.507L497.563 351.505ZM502.818 357.121L498.82 356.992L498.004 382.377L502.002 382.506L506 382.634L506.816 357.249L502.818 357.121ZM502.002 382.506L498.004 382.377C497.979 383.166 497.296 383.798 496.525 383.773L496.398 387.771L496.27 391.769C501.471 391.935 505.833 387.823 506 382.635L502.002 382.506ZM496.398 387.771L496.525 383.773L470.52 382.944L470.392 386.942L470.265 390.94L496.27 391.769L496.398 387.771ZM470.392 386.942L470.522 382.944C469.732 382.918 469.1 382.237 469.125 381.461L465.127 381.332L461.129 381.203C460.961 386.404 465.066 390.771 470.263 390.939L470.392 386.942ZM465.127 381.332L469.125 381.46L469.941 356.075L465.943 355.947L461.945 355.818L461.129 381.203L465.127 381.332ZM465.943 355.947L469.941 356.076C469.967 355.29 470.646 354.656 471.427 354.681L471.556 350.683L471.685 346.685C466.479 346.517 462.113 350.626 461.945 355.818L465.943 355.947ZM471.556 350.683L475.474 351.49L475.475 351.482L471.558 350.675L467.64 349.868L467.638 349.876L471.556 350.683ZM429.931 400.458L429.804 404.456L483.361 406.166L483.488 402.168L483.616 398.17L430.059 396.46L429.931 400.458ZM483.488 402.168L483.361 406.166C490.967 406.408 497.007 412.857 496.762 420.48L500.76 420.609L504.758 420.737C505.144 408.712 495.653 398.553 483.616 398.17L483.488 402.168ZM500.76 420.609L496.762 420.479L493.497 521.457L497.495 521.586L501.493 521.716L504.758 420.738L500.76 420.609ZM497.495 521.586L493.497 521.458C493.252 529.078 486.804 535.13 479.193 534.888L479.065 538.886L478.938 542.884C490.971 543.267 501.106 533.743 501.493 521.715L497.495 521.586ZM479.065 538.886L479.193 534.888L425.636 533.178L425.509 537.176L425.381 541.174L478.938 542.884L479.065 538.886ZM425.509 537.176L425.635 533.178C418.033 532.937 411.982 526.489 412.234 518.867L408.237 518.735L404.239 518.603C403.841 530.642 413.357 540.793 425.382 541.174L425.509 537.176ZM408.237 518.735L412.234 518.864L415.5 417.887L411.502 417.757L407.504 417.628L404.239 518.606L408.237 518.735ZM411.502 417.757L415.5 417.886C415.746 410.258 422.193 404.214 429.804 404.456L429.931 400.458L430.059 396.46C418.027 396.077 407.892 405.591 407.504 417.628L411.502 417.757ZM259.733 293.351L259.605 297.349L285.602 298.177L285.73 294.179L285.857 290.181L259.86 289.353L259.733 293.351ZM285.73 294.179L285.6 298.177C286.381 298.202 287.021 298.882 286.995 299.668L290.993 299.797L294.991 299.926C295.159 294.734 291.065 290.35 285.859 290.181L285.73 294.179ZM290.993 299.797L286.995 299.669L286.179 325.053L290.177 325.182L294.175 325.31L294.991 299.926L290.993 299.797ZM290.177 325.182L286.179 325.053C286.154 325.838 285.475 326.473 284.694 326.448L284.565 330.446L284.435 334.444C289.642 334.612 294.008 330.503 294.175 325.311L290.177 325.182ZM284.565 330.446L284.692 326.448L258.695 325.62L258.567 329.618L258.44 333.616L284.437 334.444L284.565 330.446ZM258.567 329.618L258.695 325.62C257.907 325.595 257.275 324.914 257.3 324.139L253.302 324.008L249.304 323.877C249.133 329.095 253.257 333.45 258.44 333.616L258.567 329.618ZM253.302 324.008L257.3 324.136L258.116 298.752L254.118 298.623L250.12 298.495L249.304 323.879L253.302 324.008ZM254.118 298.623L258.116 298.752C258.141 297.972 258.824 297.332 259.603 297.357L259.731 293.359L259.858 289.361C254.667 289.196 250.288 293.296 250.12 298.494L254.118 298.623Z" fill="black" mask="url(#path-3-inside-1_1_742)"/>
<mask id="path-5-inside-2_1_742" fill="white">
<path d="M507.005 210.658L261.732 202.832C261.541 202.826 261.349 202.904 261.211 203.043C261.067 203.173 260.979 203.356 260.972 203.555L259.058 262.606C259.05 262.805 259.129 262.989 259.267 263.135C259.398 263.271 259.581 263.359 259.77 263.373L505.043 271.198C505.242 271.206 505.436 271.12 505.57 270.997C505.706 270.866 505.803 270.676 505.809 270.485L507.715 211.433C507.723 211.233 507.644 211.049 507.506 210.903C507.377 210.759 507.194 210.672 506.995 210.664"/>
</mask>
<path d="M507.005 210.658L261.732 202.832C261.541 202.826 261.349 202.904 261.211 203.043C261.067 203.173 260.979 203.356 260.972 203.555L259.058 262.606C259.05 262.805 259.129 262.989 259.267 263.135C259.398 263.271 259.581 263.359 259.77 263.373L505.043 271.198C505.242 271.206 505.436 271.12 505.57 270.997C505.706 270.866 505.803 270.676 505.809 270.485L507.715 211.433C507.723 211.233 507.644 211.049 507.506 210.903C507.377 210.759 507.194 210.672 506.995 210.664" fill="#FFE89C"/>
<path d="M261.732 202.832L261.828 199.833L261.824 199.833L261.732 202.832ZM261.211 203.043L263.219 205.272L263.284 205.213L263.346 205.15L261.211 203.043ZM260.972 203.555L257.974 203.441L257.974 203.449L257.973 203.458L260.972 203.555ZM259.058 262.606L262.055 262.72L262.056 262.711L262.056 262.703L259.058 262.606ZM259.267 263.135L257.085 265.194L257.096 265.205L257.107 265.217L259.267 263.135ZM259.77 263.373L259.551 266.364L259.613 266.369L259.675 266.371L259.77 263.373ZM505.043 271.198L505.156 268.201L505.147 268.2L505.139 268.2L505.043 271.198ZM505.57 270.997L507.599 273.207L507.627 273.181L507.654 273.154L505.57 270.997ZM505.809 270.485L502.811 270.388L502.811 270.391L505.809 270.485ZM507.715 211.433L504.718 211.318L504.717 211.327L504.717 211.336L507.715 211.433ZM507.506 210.903L505.275 212.909L505.299 212.936L505.324 212.962L507.506 210.903ZM507.005 210.658L507.1 207.659L261.828 199.833L261.732 202.832L261.636 205.83L506.909 213.656L507.005 210.658ZM261.732 202.832L261.824 199.833C260.778 199.801 259.785 200.217 259.076 200.935L261.211 203.043L263.346 205.15C262.913 205.59 262.304 205.851 261.64 205.83L261.732 202.832ZM261.211 203.043L259.203 200.814C258.465 201.479 258.013 202.422 257.974 203.441L260.972 203.555L263.97 203.67C263.946 204.289 263.67 204.866 263.219 205.272L261.211 203.043ZM260.972 203.555L257.973 203.458L256.059 262.508L259.058 262.606L262.056 262.703L263.97 203.652L260.972 203.555ZM259.058 262.606L256.06 262.491C256.017 263.601 256.472 264.544 257.085 265.194L259.267 263.135L261.449 261.076C261.786 261.434 262.083 262.009 262.055 262.72L259.058 262.606ZM259.267 263.135L257.107 265.217C257.737 265.87 258.605 266.295 259.551 266.364L259.77 263.373L259.99 260.381C260.556 260.422 261.059 260.671 261.426 261.053L259.267 263.135ZM259.77 263.373L259.675 266.371L504.947 274.197L505.043 271.198L505.139 268.2L259.866 260.374L259.77 263.373ZM505.043 271.198L504.93 274.196C506.032 274.238 506.971 273.783 507.599 273.207L505.57 270.997L503.541 268.787C503.9 268.457 504.452 268.174 505.156 268.201L505.043 271.198ZM505.57 270.997L507.654 273.154C508.252 272.577 508.774 271.679 508.808 270.578L505.809 270.485L502.811 270.391C502.822 270.014 502.921 269.7 503.034 269.464C503.147 269.229 503.3 269.019 503.485 268.839L505.57 270.997ZM505.809 270.485L508.808 270.582L510.714 211.529L507.715 211.433L504.717 211.336L502.811 270.388L505.809 270.485ZM507.715 211.433L510.713 211.547C510.756 210.437 510.301 209.494 509.688 208.844L507.506 210.903L505.324 212.962C504.987 212.604 504.691 212.029 504.718 211.318L507.715 211.433ZM507.506 210.903L509.738 208.898C509.072 208.158 508.129 207.705 507.108 207.666L506.995 210.664L506.882 213.662C506.26 213.638 505.681 213.361 505.275 212.909L507.506 210.903Z" fill="black" mask="url(#path-5-inside-2_1_742)"/>
<path d="M155.334 287.198L145.738 288.801L170.986 440.864L180.582 439.262C222.531 432.262 250.874 392.549 243.909 350.561C236.938 308.562 197.275 280.197 155.326 287.197" fill="white"/>
<path d="M142.732 291.319C183.589 284.501 222.221 312.136 229.013 353.038C235.805 393.941 208.187 432.62 167.327 439.446C126.471 446.264 87.8454 418.639 81.0468 377.727C74.2546 336.825 101.872 298.145 142.732 291.319Z" fill="#FFE89C" stroke="black" stroke-width="4"/>
<mask id="path-9-outside-3_1_742" maskUnits="userSpaceOnUse" x="103.575" y="299.15" width="103.136" height="131.912" fill="black">
<rect fill="white" x="103.575" y="299.15" width="103.136" height="131.912"/>
<path d="M164.535 394.305C167.486 393.228 169.727 391.41 171.263 388.827C172.798 386.251 173.318 383.442 172.809 380.387C172.359 377.655 171.164 375.447 169.222 373.74C167.288 372.034 164.414 370.948 160.579 370.51L164.527 394.303L164.535 394.305ZM144.918 330.871C142.653 332.072 140.98 333.773 139.875 335.967C138.772 338.154 138.411 340.434 138.812 342.796C139.171 344.957 140.155 346.844 141.76 348.482C143.366 350.112 145.587 351.282 148.414 351.981L144.908 330.877L144.918 330.871ZM155.55 394.927L151.305 369.363C142.962 368.416 136.548 365.947 132.062 361.956C127.58 357.949 124.786 352.655 123.698 346.07C122.594 339.398 123.762 333.445 127.218 328.206C130.674 322.968 135.841 319.422 142.712 317.56L141.704 311.52L150.545 310.047L151.545 316.086C158.129 315.782 163.636 317.126 168.057 320.132C172.484 323.147 175.736 327.596 177.796 333.527L162.713 338.114C160.983 333.467 158.002 330.624 153.775 329.569L157.735 353.423C167.924 354.432 175.139 356.756 179.366 360.375C183.601 363.996 186.267 369.096 187.362 375.691C188.582 383.057 187.387 389.633 183.78 395.402C180.158 401.201 174.489 405.314 166.756 407.786L168.65 419.197L159.81 420.662L157.969 409.564C150.797 409.88 144.653 408.213 139.53 404.551C134.416 400.892 130.592 395.151 128.032 387.341L143.654 382.982C144.85 386.12 146.524 388.719 148.709 390.794C150.882 392.843 153.168 394.219 155.536 394.916"/>
</mask>
<path d="M164.535 394.305C167.486 393.228 169.727 391.41 171.263 388.827C172.798 386.251 173.318 383.442 172.809 380.387C172.359 377.655 171.164 375.447 169.222 373.74C167.288 372.034 164.414 370.948 160.579 370.51L164.527 394.303L164.535 394.305ZM144.918 330.871C142.653 332.072 140.98 333.773 139.875 335.967C138.772 338.154 138.411 340.434 138.812 342.796C139.171 344.957 140.155 346.844 141.76 348.482C143.366 350.112 145.587 351.282 148.414 351.981L144.908 330.877L144.918 330.871ZM155.55 394.927L151.305 369.363C142.962 368.416 136.548 365.947 132.062 361.956C127.58 357.949 124.786 352.655 123.698 346.07C122.594 339.398 123.762 333.445 127.218 328.206C130.674 322.968 135.841 319.422 142.712 317.56L141.704 311.52L150.545 310.047L151.545 316.086C158.129 315.782 163.636 317.126 168.057 320.132C172.484 323.147 175.736 327.596 177.796 333.527L162.713 338.114C160.983 333.467 158.002 330.624 153.775 329.569L157.735 353.423C167.924 354.432 175.139 356.756 179.366 360.375C183.601 363.996 186.267 369.096 187.362 375.691C188.582 383.057 187.387 389.633 183.78 395.402C180.158 401.201 174.489 405.314 166.756 407.786L168.65 419.197L159.81 420.662L157.969 409.564C150.797 409.88 144.653 408.213 139.53 404.551C134.416 400.892 130.592 395.151 128.032 387.341L143.654 382.982C144.85 386.12 146.524 388.719 148.709 390.794C150.882 392.843 153.168 394.219 155.536 394.916" fill="#FEBE48"/>
<path d="M164.535 394.305L163.728 398.223L164.84 398.452L165.906 398.063L164.535 394.305ZM171.263 388.827L167.827 386.779L167.825 386.782L171.263 388.827ZM172.809 380.387L168.862 381.037L168.863 381.045L172.809 380.387ZM169.222 373.74L166.576 376.74L166.581 376.744L169.222 373.74ZM160.579 370.51L161.032 366.536L155.765 365.935L156.633 371.165L160.579 370.51ZM164.527 394.303L160.581 394.958L161.03 397.667L163.72 398.221L164.527 394.303ZM144.918 330.871L147.116 334.213L143.043 327.337L144.918 330.871ZM139.875 335.967L143.447 337.769L143.448 337.766L139.875 335.967ZM138.812 342.796L142.758 342.141L142.757 342.134L142.756 342.127L138.812 342.796ZM141.76 348.482L138.903 351.282L138.911 351.29L141.76 348.482ZM148.414 351.981L147.453 355.864L153.357 357.325L152.36 351.326L148.414 351.981ZM144.908 330.877L142.71 327.535L140.536 328.965L140.962 331.533L144.908 330.877ZM151.305 369.363L155.251 368.708L154.757 365.729L151.757 365.389L151.305 369.363ZM132.062 361.956L129.396 364.938L129.403 364.944L132.062 361.956ZM123.698 346.07L127.645 345.418L127.645 345.417L123.698 346.07ZM142.712 317.56L143.758 321.421L147.253 320.474L146.657 316.902L142.712 317.56ZM141.704 311.52L141.047 307.574L137.1 308.232L137.758 312.178L141.704 311.52ZM150.545 310.047L154.492 309.394L153.838 305.444L149.888 306.101L150.545 310.047ZM151.545 316.086L147.599 316.739L148.179 320.245L151.73 320.082L151.545 316.086ZM168.057 320.132L170.309 316.826L170.306 316.824L168.057 320.132ZM177.796 333.527L178.96 337.354L182.94 336.143L181.575 332.214L177.796 333.527ZM162.713 338.114L158.964 339.51L160.277 343.036L163.877 341.941L162.713 338.114ZM153.775 329.569L154.743 325.688L148.83 324.212L149.829 330.224L153.775 329.569ZM157.735 353.423L153.789 354.078L154.291 357.102L157.341 357.404L157.735 353.423ZM179.366 360.375L176.764 363.413L176.766 363.415L179.366 360.375ZM187.362 375.691L191.308 375.037L191.308 375.036L187.362 375.691ZM183.78 395.402L180.388 393.281L180.387 393.283L183.78 395.402ZM166.756 407.786L165.538 403.976L162.244 405.029L162.81 408.441L166.756 407.786ZM168.65 419.197L169.304 423.143L173.252 422.489L172.596 418.542L168.65 419.197ZM159.81 420.662L155.864 421.317L156.519 425.262L160.464 424.608L159.81 420.662ZM157.969 409.564L161.915 408.909L161.335 405.411L157.793 405.567L157.969 409.564ZM139.53 404.551L137.203 407.804L137.204 407.806L139.53 404.551ZM128.032 387.341L126.957 383.488L122.928 384.612L124.231 388.587L128.032 387.341ZM143.654 382.982L147.392 381.558L146.093 378.149L142.579 379.129L143.654 382.982ZM148.709 390.794L145.953 393.694L145.959 393.7L145.965 393.705L148.709 390.794ZM164.535 394.305L165.906 398.063C169.673 396.688 172.667 394.291 174.701 390.872L171.263 388.827L167.825 386.782C166.786 388.529 165.298 389.768 163.164 390.547L164.535 394.305ZM171.263 388.827L174.699 390.875C176.732 387.464 177.415 383.692 176.754 379.729L172.809 380.387L168.863 381.045C169.221 383.192 168.864 385.039 167.827 386.779L171.263 388.827ZM172.809 380.387L176.756 379.737C176.166 376.157 174.546 373.095 171.863 370.736L169.222 373.74L166.581 376.744C167.781 377.8 168.551 379.152 168.862 381.037L172.809 380.387ZM169.222 373.74L171.868 370.74C169.094 368.294 165.319 367.025 161.032 366.536L160.579 370.51L160.125 374.484C163.51 374.871 165.482 375.775 166.576 376.74L169.222 373.74ZM160.579 370.51L156.633 371.165L160.581 394.958L164.527 394.303L168.473 393.649L164.525 369.855L160.579 370.51ZM164.527 394.303L163.72 398.221L163.728 398.223L164.535 394.305L165.342 390.387L165.334 390.386L164.527 394.303ZM144.918 330.871L143.043 327.337C140.069 328.915 137.792 331.211 136.303 334.168L139.875 335.967L143.448 337.766C144.169 336.335 145.237 335.23 146.792 334.405L144.918 330.871ZM139.875 335.967L136.304 334.165C134.83 337.087 134.32 340.231 134.869 343.466L138.812 342.796L142.756 342.127C142.503 340.637 142.714 339.22 143.447 337.769L139.875 335.967ZM138.812 342.796L134.866 343.452C135.367 346.471 136.76 349.094 138.903 351.282L141.76 348.482L144.617 345.683C143.551 344.594 142.974 343.443 142.758 342.141L138.812 342.796ZM141.76 348.482L138.911 351.29C141.158 353.569 144.099 355.034 147.453 355.864L148.414 351.981L149.375 348.098C147.074 347.529 145.575 346.655 144.609 345.674L141.76 348.482ZM148.414 351.981L152.36 351.326L148.854 330.222L144.908 330.877L140.962 331.533L144.468 352.637L148.414 351.981ZM144.908 330.877L147.106 334.219L147.116 334.213L144.918 330.871L142.72 327.529L142.71 327.535L144.908 330.877ZM155.55 394.927L159.496 394.272L155.251 368.708L151.305 369.363L147.359 370.019L151.604 395.582L155.55 394.927ZM151.305 369.363L151.757 365.389C143.916 364.499 138.388 362.231 134.721 358.968L132.062 361.956L129.403 364.944C134.707 369.664 142.008 372.334 150.854 373.338L151.305 369.363ZM132.062 361.956L134.728 358.974C130.999 355.64 128.601 351.204 127.645 345.418L123.698 346.07L119.752 346.722C120.972 354.106 124.162 360.258 129.396 364.938L132.062 361.956ZM123.698 346.07L127.645 345.417C126.691 339.651 127.703 334.735 130.557 330.409L127.218 328.206L123.879 326.004C119.82 332.155 118.498 339.145 119.752 346.723L123.698 346.07ZM127.218 328.206L130.557 330.409C133.402 326.096 137.69 323.066 143.758 321.421L142.712 317.56L141.665 313.7C133.992 315.779 127.946 319.84 123.879 326.004L127.218 328.206ZM142.712 317.56L146.657 316.902L145.649 310.862L141.704 311.52L137.758 312.178L138.766 318.219L142.712 317.56ZM141.704 311.52L142.361 315.466L151.203 313.993L150.545 310.047L149.888 306.101L141.047 307.574L141.704 311.52ZM150.545 310.047L146.599 310.7L147.599 316.739L151.545 316.086L155.492 315.433L154.492 309.394L150.545 310.047ZM151.545 316.086L151.73 320.082C157.659 319.808 162.259 321.026 165.808 323.439L168.057 320.132L170.306 316.824C165.014 313.226 158.599 311.756 151.361 312.09L151.545 316.086ZM168.057 320.132L165.805 323.437C169.413 325.895 172.193 329.586 174.018 334.839L177.796 333.527L181.575 332.214C179.279 325.606 175.554 320.398 170.309 316.826L168.057 320.132ZM177.796 333.527L176.632 329.7L161.549 334.287L162.713 338.114L163.877 341.941L178.96 337.354L177.796 333.527ZM162.713 338.114L166.462 336.718C164.343 331.028 160.438 327.109 154.743 325.688L153.775 329.569L152.806 333.45C155.566 334.138 157.622 335.905 158.964 339.51L162.713 338.114ZM153.775 329.569L149.829 330.224L153.789 354.078L157.735 353.423L161.681 352.768L157.721 328.914L153.775 329.569ZM157.735 353.423L157.341 357.404C167.303 358.39 173.493 360.612 176.764 363.413L179.366 360.375L181.967 357.337C176.784 352.899 168.546 350.474 158.13 349.443L157.735 353.423ZM179.366 360.375L176.766 363.415C180.151 366.309 182.444 370.489 183.416 376.346L187.362 375.691L191.308 375.036C190.091 367.703 187.05 361.682 181.965 357.335L179.366 360.375ZM187.362 375.691L183.416 376.344C184.493 382.85 183.427 388.421 180.388 393.281L183.78 395.402L187.171 397.523C191.347 390.844 192.671 383.264 191.308 375.037L187.362 375.691ZM183.78 395.402L180.387 393.283C177.36 398.13 172.552 401.734 165.538 403.976L166.756 407.786L167.974 411.596C176.427 408.894 182.956 404.273 187.173 397.521L183.78 395.402ZM166.756 407.786L162.81 408.441L164.704 419.852L168.65 419.197L172.596 418.542L170.702 407.131L166.756 407.786ZM168.65 419.197L167.997 415.251L159.157 416.716L159.81 420.662L160.464 424.608L169.304 423.143L168.65 419.197ZM159.81 420.662L163.757 420.007L161.915 408.909L157.969 409.564L154.023 410.218L155.864 421.317L159.81 420.662ZM157.969 409.564L157.793 405.567C151.381 405.85 146.149 404.366 141.856 401.297L139.53 404.551L137.204 407.806C143.156 412.06 150.213 413.91 158.145 413.56L157.969 409.564ZM139.53 404.551L141.858 401.298C137.625 398.27 134.211 393.35 131.833 386.095L128.032 387.341L124.231 388.587C126.973 396.952 131.207 403.514 137.203 407.804L139.53 404.551ZM128.032 387.341L129.107 391.194L144.729 386.835L143.654 382.982L142.579 379.129L126.957 383.488L128.032 387.341ZM143.654 382.982L139.916 384.406C141.297 388.031 143.282 391.156 145.953 393.694L148.709 390.794L151.464 387.895C149.766 386.281 148.402 384.208 147.392 381.558L143.654 382.982ZM148.709 390.794L145.965 393.705C148.505 396.1 151.326 397.846 154.406 398.753L155.536 394.916L156.666 391.079C155.01 390.591 153.258 389.586 151.452 387.884L148.709 390.794Z" fill="black" mask="url(#path-9-outside-3_1_742)"/>
<path d="M181.804 291.627C179.921 291.013 178.027 290.455 176.099 289.983L183.752 288.709C185.84 289.139 187.913 289.642 189.949 290.245L189.857 290.285L181.804 291.627Z" fill="white"/>
<path d="M189.749 294.713C188.28 294.041 186.796 293.443 185.289 292.873L193.68 291.474C194.937 291.918 196.169 292.398 197.402 292.911C197.223 293.252 196.908 293.522 196.491 293.595L189.747 294.721" fill="white"/>
<path d="M161.971 287.937L166.462 287.185C170.492 287.085 174.47 287.284 178.374 287.794L171.248 288.984C168.203 288.449 165.111 288.097 161.979 287.938" fill="white"/>
<path d="M196.212 298.039C195.009 297.338 193.778 296.691 192.535 296.058L201.221 294.611C202.189 295.071 203.145 295.552 204.088 296.057C203.934 296.477 203.589 296.809 203.121 296.888L196.212 298.039Z" fill="white"/>
<path d="M201.714 301.526C200.681 300.811 199.633 300.126 198.573 299.463L207.475 297.978C208.467 298.568 209.445 299.188 210.417 299.832C210.241 299.997 210.018 300.144 209.759 300.183L201.715 301.518" fill="white"/>
<path d="M206.513 305.13C205.625 304.402 204.7 303.692 203.771 302.998L212.83 301.486C213.778 302.167 214.713 302.871 215.634 303.605L206.513 305.13Z" fill="white"/>
<path d="M210.748 308.834C209.963 308.094 209.16 307.359 208.334 306.653L217.454 305.128C218.288 305.836 219.109 306.567 219.92 307.304L210.748 308.834Z" fill="white"/>
<path d="M214.487 312.63C213.782 311.864 213.064 311.122 212.327 310.392L221.551 308.855C222.289 309.577 223.031 310.325 223.747 311.075L214.487 312.63Z" fill="white"/>
<path d="M217.813 316.474C217.194 315.701 216.571 314.945 215.915 314.189L225.18 312.653C225.84 313.392 226.48 314.144 227.115 314.92L217.813 316.474Z" fill="white"/>
<path d="M220.791 320.389C220.233 319.604 219.662 318.841 219.081 318.085L228.418 316.521C229.007 317.279 229.568 318.049 230.128 318.826L220.801 320.383" fill="white"/>
<path d="M223.404 324.364C222.914 323.575 222.406 322.792 221.894 322.025L231.249 320.456C231.777 321.227 232.295 322.004 232.793 322.794L223.406 324.356" fill="white"/>
<path d="M232.3 384.702C232.535 383.803 232.77 382.904 232.974 381.999L242.353 380.436C242.14 381.348 241.897 382.244 241.653 383.141L232.292 384.7" fill="white"/>
<path d="M230.917 389.345C231.221 388.435 231.518 387.524 231.782 386.606L241.11 385.049C240.838 385.965 240.557 386.88 240.245 387.788L230.917 389.345Z" fill="white"/>
<path d="M229.172 394.039C229.545 393.119 229.895 392.193 230.228 391.265L239.522 389.709C239.179 390.644 238.814 391.566 238.424 392.483L229.164 394.037" fill="white"/>
<path d="M227.018 398.808C227.478 397.872 227.911 396.947 228.334 395.995L237.6 394.45C237.164 395.391 236.711 396.329 236.242 397.263L227.019 398.8" fill="white"/>
<path d="M224.448 403.643C224.992 402.707 225.518 401.743 226.015 400.789L235.195 399.26C234.67 400.225 234.13 401.178 233.568 402.118L224.448 403.643Z" fill="white"/>
<path d="M234.84 362.245C234.81 361.375 234.783 360.532 234.717 359.672L244.175 358.091C244.233 358.949 244.257 359.809 244.289 360.671L234.84 362.245Z" fill="white"/>
<path d="M234.864 366.641C234.883 365.774 234.901 364.914 234.895 364.05L244.344 362.475C244.35 363.34 244.33 364.207 244.304 365.065L234.864 366.641Z" fill="white"/>
<path d="M234.559 357.879C234.475 357.024 234.398 356.178 234.288 355.334L243.746 353.754C243.847 354.604 243.94 355.453 244.009 356.297L234.559 357.879Z" fill="white"/>
<path d="M234.034 353.556C233.966 353.114 233.932 352.671 233.854 352.236C233.787 351.829 233.693 351.432 233.626 351.024L243.093 349.445C243.169 349.847 243.255 350.242 243.322 350.649C243.4 351.084 243.442 351.529 243.51 351.97L234.044 353.549" fill="white"/>
<path d="M233.285 349.269C233.114 348.43 232.918 347.593 232.719 346.773L242.185 345.194C242.383 346.022 242.581 346.851 242.751 347.691L233.285 349.269Z" fill="white"/>
<path d="M232.29 345.034C232.078 344.194 231.829 343.371 231.586 342.559L241.036 340.976C241.277 341.797 241.528 342.611 241.757 343.455L232.29 345.034Z" fill="white"/>
<path d="M231.064 340.825C230.791 339.998 230.497 339.192 230.196 338.375L239.644 336.801C239.945 337.617 240.239 338.424 240.513 339.251L231.064 340.825Z" fill="white"/>
<path d="M229.56 336.669C229.251 335.851 228.916 335.036 228.561 334.242L237.992 332.673C238.339 333.465 238.672 334.288 238.992 335.091L229.55 336.675" fill="white"/>
<path d="M227.796 332.551C227.424 331.754 227.056 330.94 226.657 330.154L236.062 328.588C236.463 329.366 236.841 330.173 237.219 330.98L227.796 332.551Z" fill="white"/>
<path d="M225.771 328.48C225.342 327.679 224.911 326.886 224.459 326.115L233.84 324.543C234.3 325.317 234.747 326.113 235.176 326.914L225.771 328.48Z" fill="white"/>
<path d="M234.653 371.081C234.716 370.206 234.769 369.337 234.806 368.465L244.247 366.889C244.2 367.768 244.155 368.638 244.083 369.512L234.651 371.089" fill="white"/>
<path d="M234.163 375.573C234.286 374.693 234.374 373.815 234.465 372.928L243.888 371.357C243.789 372.242 243.691 373.127 243.56 374.005L234.163 375.573Z" fill="white"/>
<path d="M233.38 380.105C233.553 379.227 233.712 378.33 233.862 377.439L243.267 375.872C243.117 376.763 242.95 377.659 242.768 378.544L233.388 380.107" fill="white"/>
<path d="M221.296 408.584C221.955 407.621 222.588 406.662 223.203 405.666L232.321 404.149C231.692 405.134 231.03 406.113 230.349 407.062L221.298 408.576" fill="white"/>
<path d="M217.523 413.614C218.316 412.647 219.091 411.649 219.835 410.638L227.872 409.293C228.01 409.271 228.142 409.281 228.271 409.308C228.383 409.331 228.5 409.372 228.608 409.419C227.898 410.345 227.169 411.243 226.426 412.129L217.523 413.614Z" fill="white"/>
<path d="M212.916 418.792C213.891 417.794 214.846 416.776 215.764 415.733L222.664 414.581C222.821 414.555 222.962 414.559 223.107 414.588C223.396 414.648 223.655 414.81 223.85 415.043C223.12 415.823 222.368 416.59 221.609 417.347L212.916 418.792Z" fill="white"/>
<path d="M207.087 424.17C208.322 423.134 209.542 422.086 210.708 420.977L217.45 419.86C217.599 419.832 217.748 419.837 217.893 419.867C218.134 419.917 218.352 420.037 218.532 420.217C217.54 421.093 216.526 421.949 215.476 422.78L207.087 424.17Z" fill="white"/>
<path d="M199.331 429.881C200.992 428.807 202.617 427.667 204.195 426.466L212.248 425.124L212.356 425.13C210.621 426.357 208.828 427.504 206.988 428.592L199.331 429.881Z" fill="white"/>
<path d="M186.629 436.401C189.54 435.232 192.353 433.892 195.061 432.405L202.195 431.217C198.671 432.964 194.966 434.455 191.119 435.657L186.629 436.401Z" fill="white"/>
<g clip-path="url(#clip0_1_742)">
<path d="M117.6 56.81C84.35 56.81 57.47 83.75 57.47 116.94C57.47 140.83 71.41 161.47 91.65 171.16V191.73H143.62V171.16C163.79 161.47 177.8 140.83 177.8 116.94C177.73 83.76 150.79 56.81 117.61 56.81H117.6Z" fill="#FFE89C"/>
<path d="M91.59 191.8V213.1C91.59 220.07 97.23 225.71 104.2 225.71H130.94C137.91 225.71 143.55 220.07 143.55 213.1V191.8H91.59Z" fill="#D3D3D3"/>
<path d="M117.6 54.82C83.36 54.82 55.48 82.7 55.48 116.94C55.48 140.3 68.82 161.94 89.66 172.42V213.57C89.66 221.2 95.9 227.44 103.53 227.44H131.81C139.44 227.44 145.68 221.2 145.68 213.57V172.49C166.45 162 179.86 140.36 179.86 117.01C179.73 82.7 151.85 54.82 117.61 54.82H117.6ZM104.59 130.74C95.43 129.68 90.99 126.89 90.99 120.05C90.99 114.01 94.24 111.22 97.23 111.22C99.02 111.22 100.75 112.15 102.07 113.75C103.73 115.81 104.59 118.86 104.59 122.57V130.74ZM117.6 135.26C120.72 135.26 123.77 135.19 126.56 135.06V189.81H108.58V135.06C111.43 135.19 114.49 135.26 117.61 135.26H117.6ZM141.56 193.79V200.3H93.58V193.79H141.56ZM93.58 204.28H141.56V210.79H93.58V204.28ZM131.74 223.39H103.47C98.42 223.39 94.31 219.61 93.65 214.76H141.5C140.9 219.61 136.79 223.39 131.74 223.39ZM142.69 169.37C142.03 169.7 141.56 170.43 141.56 171.16V189.74H130.54V134.72C140.89 133.59 148.13 130.21 148.13 119.99C148.13 111.63 142.95 107.18 137.91 107.18C134.92 107.18 132 108.64 129.95 111.23C127.76 114.02 126.56 117.93 126.56 122.52V131.01C123.9 131.14 120.85 131.21 117.6 131.21C114.35 131.21 111.29 131.14 108.64 131.01V122.52C108.64 117.94 107.45 114.03 105.26 111.23C103.2 108.64 100.28 107.18 97.3 107.18C92.19 107.18 87.08 111.56 87.08 119.99C87.08 130.21 94.31 133.6 104.67 134.72V189.8H93.59V171.22C93.59 170.43 93.13 169.76 92.46 169.43C72.42 159.81 59.41 139.24 59.41 117C59.41 84.94 85.49 58.86 117.55 58.86C149.61 58.86 175.69 84.94 175.69 117C175.76 139.17 162.81 159.74 142.71 169.36L142.69 169.37ZM130.54 130.74V122.57C130.54 118.86 131.4 115.8 133.07 113.75C134.4 112.09 136.12 111.22 137.91 111.22C140.89 111.22 144.15 114.01 144.15 120.05C144.15 126.89 139.77 129.68 130.54 130.74ZM119.59 1.99V36.7C119.59 37.83 118.73 38.69 117.6 38.69C116.47 38.69 115.61 37.83 115.61 36.7V1.99C115.61 0.86 116.47 0 117.6 0C118.73 0 119.59 0.86 119.59 1.99ZM37.23 117.73H1.99C0.86 117.73 0 116.87 0 115.74C0 114.61 0.86 113.75 1.99 113.75H37.23C38.36 113.75 39.22 114.61 39.22 115.74C39.22 116.87 38.36 117.73 37.23 117.73ZM235.2 115.74C235.2 116.87 234.34 117.73 233.21 117.73H197.97C196.84 117.73 195.98 116.87 195.98 115.74C195.98 114.61 196.84 113.75 197.97 113.75H233.21C234.27 113.75 235.2 114.61 235.2 115.74ZM62.19 58.4C62.99 59.2 62.99 60.46 62.19 61.19C61.79 61.59 61.26 61.78 60.79 61.78C60.26 61.78 59.8 61.58 59.4 61.19L34.44 36.63C33.65 35.83 33.65 34.57 34.44 33.84C35.24 33.04 36.5 33.04 37.23 33.84L62.18 58.39L62.19 58.4ZM200.76 194.79C201.56 195.59 201.56 196.85 200.76 197.58C200.36 197.98 199.83 198.18 199.36 198.18C198.83 198.18 198.37 197.98 197.97 197.58L173.02 173.03C172.22 172.23 172.22 170.97 173.02 170.24C173.81 169.44 175.08 169.44 175.81 170.24L200.76 194.8V194.79ZM62.19 170.23C62.99 171.03 62.92 172.29 62.19 173.02L37.24 197.57C36.84 197.97 36.38 198.17 35.84 198.17C35.3 198.17 34.78 197.97 34.44 197.57C33.65 196.77 33.71 195.51 34.44 194.78L59.4 170.22C60.2 169.42 61.46 169.42 62.19 170.22V170.23ZM172.95 61.26C172.15 60.46 172.22 59.2 172.95 58.47L197.9 33.91C198.7 33.12 199.96 33.18 200.69 33.91C201.49 34.71 201.42 35.97 200.69 36.7L175.74 61.25C175.34 61.65 174.88 61.85 174.34 61.85C173.88 61.85 173.35 61.65 172.95 61.25V61.26ZM88.6 41.81C89 42.8 88.54 44 87.54 44.4C87.27 44.53 87.01 44.53 86.74 44.53C85.95 44.53 85.21 44.07 84.89 43.34L78.58 28.41C78.18 27.42 78.65 26.22 79.64 25.82C80.63 25.42 81.83 25.89 82.23 26.88L88.6 41.81ZM44 147.86L28.8 154.03C28.53 154.17 28.27 154.17 28.07 154.17C27.27 154.17 26.54 153.7 26.21 152.91C25.81 151.91 26.28 150.72 27.27 150.32L42.47 144.15C43.46 143.75 44.66 144.21 45.06 145.21C45.46 146.34 45 147.47 44 147.87V147.86ZM191.2 83.63L206.4 77.45C207.39 77.05 208.59 77.52 208.99 78.51C209.39 79.5 208.92 80.7 207.93 81.1L192.73 87.27C192.46 87.41 192.2 87.41 192 87.41C191.2 87.41 190.47 86.95 190.14 86.15C189.68 85.16 190.21 84.02 191.2 83.63ZM156.49 28.41L150.18 43.34C149.85 44.07 149.12 44.53 148.32 44.53C148.05 44.53 147.79 44.47 147.53 44.4C146.53 44 146.07 42.81 146.47 41.81L152.77 26.88C153.17 25.89 154.36 25.42 155.36 25.82C156.49 26.22 156.95 27.35 156.49 28.41ZM26.21 78.51C26.61 77.52 27.8 76.98 28.8 77.45L44 83.63C45 84.03 45.53 85.22 45.06 86.21C44.73 87.01 44 87.48 43.2 87.48C42.94 87.48 42.67 87.41 42.47 87.34L27.27 81.17C26.28 80.64 25.74 79.51 26.21 78.51ZM208.99 152.97C208.66 153.77 207.93 154.23 207.13 154.23C206.86 154.23 206.6 154.17 206.4 154.1L191.2 147.93C190.21 147.53 189.67 146.34 190.14 145.34C190.54 144.35 191.73 143.81 192.73 144.28L207.93 150.45C208.92 150.85 209.39 151.98 208.99 152.97Z" fill="black"/>
</g>
<defs>
<clipPath id="clip0_1_742">
<rect width="235.2" height="227.44" fill="white"/>
</clipPath>
</defs>
</svg>
