<svg width="188" height="49" viewBox="0 0 188 49" fill="none" xmlns="http://www.w3.org/2000/svg">
<path d="M67.32 39V11H72.68L84.6 30.76H81.76L93.48 11H98.8L98.88 39H92.8L92.76 20.32H93.88L84.52 36.04H81.6L72.04 20.32H73.4V39H67.32ZM111.483 22.28H124.963V27.32H111.483V22.28ZM111.963 33.8H127.203V39H105.523V11H126.683V16.2H111.963V33.8ZM138.319 22.28H151.799V27.32H138.319V22.28ZM138.799 33.8H154.039V39H132.359V11H153.519V16.2H138.799V33.8ZM172.595 39.48C170.435 39.48 168.422 39.1333 166.555 38.44C164.715 37.72 163.115 36.7067 161.755 35.4C160.395 34.0933 159.328 32.56 158.555 30.8C157.808 29.04 157.435 27.1067 157.435 25C157.435 22.8933 157.808 20.96 158.555 19.2C159.328 17.44 160.395 15.9067 161.755 14.6C163.142 13.2933 164.755 12.2933 166.595 11.6C168.435 10.88 170.448 10.52 172.635 10.52C175.062 10.52 177.248 10.9467 179.195 11.8C181.168 12.6267 182.822 13.8533 184.155 15.48L179.995 19.32C179.035 18.2267 177.968 17.4133 176.795 16.88C175.622 16.32 174.342 16.04 172.955 16.04C171.648 16.04 170.448 16.2533 169.355 16.68C168.262 17.1067 167.315 17.72 166.515 18.52C165.715 19.32 165.088 20.2667 164.635 21.36C164.208 22.4533 163.995 23.6667 163.995 25C163.995 26.3333 164.208 27.5467 164.635 28.64C165.088 29.7333 165.715 30.68 166.515 31.48C167.315 32.28 168.262 32.8933 169.355 33.32C170.448 33.7467 171.648 33.96 172.955 33.96C174.342 33.96 175.622 33.6933 176.795 33.16C177.968 32.6 179.035 31.76 179.995 30.64L184.155 34.48C182.822 36.1067 181.168 37.3467 179.195 38.2C177.248 39.0533 175.048 39.48 172.595 39.48Z" fill="#2D4AF1"/>
<g clip-path="url(#clip0_1_743)">
<path d="M48.941 10.9468C48.9016 10.5534 48.8426 10.16 48.7689 9.76656C48.6902 9.37806 48.5967 8.99448 48.4787 8.6109C48.3656 8.23224 48.2279 7.85849 48.0755 7.48966C47.923 7.12575 47.7558 6.76676 47.5689 6.41269C47.3772 6.06353 47.1755 5.71929 46.9592 5.3898C46.7379 5.06032 46.5018 4.74067 46.251 4.43577C45.9953 4.13087 45.7297 3.83581 45.4494 3.55058C45.1691 3.26535 44.874 3.00472 44.5691 2.75391C44.2642 2.50311 43.9397 2.26706 43.6102 2.04576C43.2807 1.82447 42.9414 1.62284 42.5922 1.43597C42.2431 1.2491 41.8841 1.08189 41.5153 0.924528C41.1513 0.772079 40.7727 0.639301 40.394 0.526194C40.0104 0.413087 39.6269 0.314732 39.2384 0.236049C38.8449 0.157366 38.4564 0.0983535 38.0581 0.0590119C37.6598 0.0196703 37.2664 0.00491714 36.868 0.00491714H12.1369C11.7386 0.00491714 11.3451 0.024588 10.9468 0.0590119C10.5534 0.0983535 10.16 0.157366 9.76656 0.236049C9.37806 0.314732 8.99448 0.408169 8.6109 0.526194C8.23224 0.639301 7.85849 0.776997 7.48966 0.924528C7.12083 1.07698 6.76184 1.2491 6.41269 1.43597C6.06353 1.62284 5.72421 1.82939 5.39472 2.04576C5.06523 2.26706 4.74558 2.50311 4.43577 2.75391C4.12595 3.00472 3.83581 3.27519 3.5555 3.55058C3.27519 3.83089 3.00963 4.12595 2.75391 4.43577C2.50311 4.74067 2.26706 5.06032 2.04576 5.3898C1.82447 5.71929 1.62284 6.05861 1.43597 6.41269C1.2491 6.76184 1.08189 7.12083 0.929445 7.48966C0.776997 7.85849 0.644219 8.23224 0.526194 8.6109C0.413087 8.99448 0.314732 9.37806 0.236049 9.76656C0.157366 10.1551 0.0983535 10.5485 0.0639296 10.9468C0.0295057 11.3451 0.00491714 11.7386 0.00491714 12.1369V36.868C0.00491714 37.2664 0.024588 37.6598 0.0639296 38.0581C0.103271 38.4564 0.162284 38.8449 0.236049 39.2384C0.314732 39.6269 0.408169 40.0154 0.526194 40.394C0.639301 40.7776 0.776997 41.1513 0.929445 41.5153C1.08189 41.8792 1.2491 42.2382 1.43597 42.5922C1.62776 42.9414 1.82939 43.2856 2.04576 43.6151C2.26706 43.9446 2.50311 44.2643 2.75391 44.5741C3.00963 44.879 3.27519 45.174 3.5555 45.4543C3.83581 45.7346 4.13087 46.0002 4.43577 46.251C4.74067 46.5067 5.06523 46.7379 5.39472 46.9592C5.72421 47.1804 6.06353 47.3821 6.41269 47.5689C6.76184 47.7558 7.12083 47.9279 7.48966 48.0804C7.85357 48.2328 8.23224 48.3656 8.6109 48.4836C8.99448 48.5967 9.37806 48.6951 9.76656 48.7738C10.16 48.8525 10.5485 48.9115 10.9468 48.9459C11.3451 48.9852 11.7386 49.0049 12.1369 49.0049H36.868C37.2664 49.0049 37.6598 48.9852 38.0581 48.9459C38.4515 48.9066 38.8449 48.8476 39.2384 48.7738C39.6269 48.6951 40.0104 48.6017 40.394 48.4836C40.7727 48.3705 41.1464 48.2328 41.5153 48.0804C41.8841 47.9279 42.2431 47.7558 42.5922 47.5689C42.9414 47.3821 43.2807 47.1755 43.6102 46.9592C43.9397 46.7379 44.2593 46.5018 44.5691 46.251C44.874 46.0002 45.1691 45.7346 45.4494 45.4543C45.7297 45.174 45.9953 44.879 46.251 44.5741C46.5018 44.2692 46.7379 43.9446 46.9592 43.6151C47.1804 43.2856 47.3821 42.9463 47.5689 42.5922C47.7558 42.2431 47.923 41.8841 48.0755 41.5153C48.2279 41.1513 48.3607 40.7727 48.4787 40.394C48.5918 40.0154 48.6902 39.6269 48.7689 39.2384C48.8475 38.8499 48.9066 38.4564 48.941 38.0581C48.9803 37.6647 49 37.2664 49 36.868V12.132C49 11.7336 48.9803 11.3402 48.941 10.9419V10.9468ZM38.7712 17.6152C37.8417 18.6971 36.932 19.7593 36.0173 20.8412C32.0487 25.4983 28.0604 30.1603 24.0722 34.8272C21.5592 37.7581 19.0561 40.7038 16.5284 43.6397C16.2874 43.9298 15.7662 44.4265 15.3285 44.2987C14.9105 44.1807 15.0088 43.6594 15.1564 43.3545C15.5154 42.5824 15.8989 41.8251 16.2579 41.053C18.7168 35.9681 21.1609 30.8684 23.6148 25.7835C23.2853 25.7737 22.9608 25.7639 22.6313 25.7589C18.8987 25.6655 15.1613 25.5573 11.4287 25.4639C10.6763 25.4393 11.4779 24.0967 11.6205 23.9394C12.3533 23.1575 13.1008 22.3608 13.8286 21.574C17.0448 18.1168 20.256 14.6793 23.4722 11.237C25.4393 9.10759 27.426 6.99297 29.4079 4.86361C29.6242 4.56855 29.8947 4.32266 30.2193 4.19972C30.2242 4.19972 30.234 4.19972 30.239 4.1948C30.4504 4.09645 30.6668 4.06694 30.834 4.21447C31.1045 4.4456 30.9865 4.86853 30.7996 5.21277C30.652 5.62094 30.5045 6.03402 30.3668 6.45203C29.1128 10.0813 27.8539 13.6958 26.5949 17.3202C26.8998 17.2906 27.2047 17.2611 27.5096 17.2316C31.2618 16.8579 34.9944 16.4743 38.7466 16.1055C39.7006 16.0071 39.0466 17.3005 38.7663 17.6251L38.7712 17.6152Z" fill="#2D4AF1"/>
</g>
<defs>
<clipPath id="clip0_1_743">
<rect width="49" height="49" fill="white"/>
</clipPath>
</defs>
</svg>
